<svg width="48" height="42" viewBox="0 0 48 42" fill="none" xmlns="http://www.w3.org/2000/svg">
<path d="M45.5146 21C46.6761 19.7222 47.3243 18.0601 47.3346 16.3333C47.3346 14.4768 46.5971 12.6963 45.2844 11.3836C43.9716 10.0708 42.1912 9.33333 40.3346 9.33333H28.248C28.6207 8.27908 28.7355 7.15087 28.5826 6.04316C28.4298 4.93545 28.0138 3.88048 27.3695 2.96656C26.7252 2.05264 25.8713 1.30638 24.8793 0.790249C23.8873 0.274118 22.7862 0.00313953 21.668 0H7.66797C5.81145 0 4.03098 0.737498 2.71822 2.05025C1.40547 3.36301 0.667969 5.14348 0.667969 7C0.67826 8.72679 1.32646 10.3888 2.48797 11.6667C1.34007 12.9501 0.705461 14.6115 0.705461 16.3333C0.705461 18.0552 1.34007 19.7166 2.48797 21C1.34007 22.2834 0.705461 23.9448 0.705461 25.6667C0.705461 27.3885 1.34007 29.0499 2.48797 30.3333C1.32646 31.6112 0.67826 33.2732 0.667969 35C0.667969 36.8565 1.40547 38.637 2.71822 39.9497C4.03098 41.2625 5.81145 42 7.66797 42H40.3346C41.6827 41.9928 43.0001 41.5965 44.1284 40.8586C45.2567 40.1208 46.1479 39.0728 46.695 37.8407C47.242 36.6086 47.4217 35.2447 47.2123 33.9129C47.0029 32.5811 46.4134 31.3382 45.5146 30.3333C46.6625 29.0499 47.2971 27.3885 47.2971 25.6667C47.2971 23.9448 46.6625 22.2834 45.5146 21ZM21.668 37.3333H7.66797C7.04913 37.3333 6.45564 37.0875 6.01805 36.6499C5.58047 36.2123 5.33464 35.6188 5.33464 35C5.33464 34.3812 5.58047 33.7877 6.01805 33.3501C6.45564 32.9125 7.04913 32.6667 7.66797 32.6667H21.668C22.2868 32.6667 22.8803 32.9125 23.3179 33.3501C23.7555 33.7877 24.0013 34.3812 24.0013 35C24.0013 35.6188 23.7555 36.2123 23.3179 36.6499C22.8803 37.0875 22.2868 37.3333 21.668 37.3333ZM21.668 28H7.66797C7.04913 28 6.45564 27.7542 6.01805 27.3166C5.58047 26.879 5.33464 26.2855 5.33464 25.6667C5.33464 25.0478 5.58047 24.4543 6.01805 24.0168C6.45564 23.5792 7.04913 23.3333 7.66797 23.3333H21.668C22.2868 23.3333 22.8803 23.5792 23.3179 24.0168C23.7555 24.4543 24.0013 25.0478 24.0013 25.6667C24.0013 26.2855 23.7555 26.879 23.3179 27.3166C22.8803 27.7542 22.2868 28 21.668 28ZM21.668 18.6667H7.66797C7.04913 18.6667 6.45564 18.4208 6.01805 17.9832C5.58047 17.5457 5.33464 16.9522 5.33464 16.3333C5.33464 15.7145 5.58047 15.121 6.01805 14.6834C6.45564 14.2458 7.04913 14 7.66797 14H21.668C22.2868 14 22.8803 14.2458 23.3179 14.6834C23.7555 15.121 24.0013 15.7145 24.0013 16.3333C24.0013 16.9522 23.7555 17.5457 23.3179 17.9832C22.8803 18.4208 22.2868 18.6667 21.668 18.6667ZM21.668 9.33333H7.66797C7.04913 9.33333 6.45564 9.0875 6.01805 8.64991C5.58047 8.21233 5.33464 7.61884 5.33464 7C5.33464 6.38116 5.58047 5.78767 6.01805 5.35008C6.45564 4.9125 7.04913 4.66667 7.66797 4.66667H21.668C22.2868 4.66667 22.8803 4.9125 23.3179 5.35008C23.7555 5.78767 24.0013 6.38116 24.0013 7C24.0013 7.61884 23.7555 8.21233 23.3179 8.64991C22.8803 9.0875 22.2868 9.33333 21.668 9.33333ZM41.9446 36.6567C41.7378 36.8748 41.4879 37.0476 41.2107 37.1641C40.9336 37.2806 40.6352 37.3382 40.3346 37.3333H28.248C28.8075 35.8281 28.8075 34.1719 28.248 32.6667H40.3346C40.9535 32.6667 41.547 32.9125 41.9846 33.3501C42.4221 33.7877 42.668 34.3812 42.668 35C42.6637 35.3104 42.5975 35.6168 42.4733 35.9012C42.349 36.1857 42.1693 36.4425 41.9446 36.6567ZM41.9446 27.3233C41.7378 27.5415 41.4879 27.7143 41.2107 27.8308C40.9336 27.9473 40.6352 28.0049 40.3346 28H28.248C28.8075 26.4948 28.8075 24.8386 28.248 23.3333H40.3346C40.9535 23.3333 41.547 23.5792 41.9846 24.0168C42.4221 24.4543 42.668 25.0478 42.668 25.6667C42.6637 25.977 42.5975 26.2834 42.4733 26.5679C42.349 26.8524 42.1693 27.1092 41.9446 27.3233ZM41.9446 17.99C41.7378 18.2082 41.4879 18.381 41.2107 18.4974C40.9336 18.6139 40.6352 18.6716 40.3346 18.6667H28.248C28.8075 17.1614 28.8075 15.5052 28.248 14H40.3346C40.9535 14 41.547 14.2458 41.9846 14.6834C42.4221 15.121 42.668 15.7145 42.668 16.3333C42.6637 16.6437 42.5975 16.9501 42.4733 17.2346C42.349 17.519 42.1693 17.7759 41.9446 17.99Z" fill="white"/>
</svg>
