<svg width="33" height="33" viewBox="0 0 33 33" fill="none" xmlns="http://www.w3.org/2000/svg">
<path d="M33 8.64538C33.0012 8.42825 32.9596 8.213 32.8775 8.01198C32.7954 7.81097 32.6744 7.62813 32.5215 7.47397L25.5255 0.478492C25.3713 0.325579 25.1885 0.204601 24.9874 0.122496C24.7864 0.0403904 24.5711 -0.0012278 24.354 2.75765e-05C24.1368 -0.0012278 23.9216 0.0403904 23.7205 0.122496C23.5195 0.204601 23.3367 0.325579 23.1825 0.478492L18.513 5.14764L0.478527 23.1808C0.325603 23.335 0.204616 23.5178 0.122505 23.7188C0.0403934 23.9198 -0.00122789 24.1351 2.75785e-05 24.3522V31.3477C2.75785e-05 31.7853 0.173866 32.2049 0.4833 32.5143C0.792735 32.8237 1.21242 32.9976 1.65002 32.9976H8.64601C8.87689 33.0101 9.10784 32.974 9.32386 32.8916C9.53989 32.8092 9.73618 32.6823 9.90001 32.5191L27.8355 14.4859L32.5215 9.89929C32.6721 9.73938 32.7948 9.55534 32.8845 9.35483C32.9004 9.22332 32.9004 9.09037 32.8845 8.95886C32.8922 8.88206 32.8922 8.80468 32.8845 8.72788L33 8.64538ZM7.96951 29.6978H3.30002V25.0287L19.6845 8.64538L24.354 13.3145L7.96951 29.6978ZM26.6805 10.9882L22.011 6.31906L24.354 3.99273L29.007 8.64538L26.6805 10.9882Z" fill="#F001F4"/>
</svg>
