<svg width="28" height="34" viewBox="0 0 28 34" fill="none" xmlns="http://www.w3.org/2000/svg">
<path d="M8.99996 13.6667H10.6666C11.1087 13.6667 11.5326 13.4911 11.8451 13.1786C12.1577 12.866 12.3333 12.4421 12.3333 12C12.3333 11.558 12.1577 11.1341 11.8451 10.8215C11.5326 10.509 11.1087 10.3334 10.6666 10.3334H8.99996C8.55793 10.3334 8.13401 10.509 7.82145 10.8215C7.50889 11.1341 7.33329 11.558 7.33329 12C7.33329 12.4421 7.50889 12.866 7.82145 13.1786C8.13401 13.4911 8.55793 13.6667 8.99996 13.6667V13.6667ZM8.99996 17C8.55793 17 8.13401 17.1756 7.82145 17.4882C7.50889 17.8008 7.33329 18.2247 7.33329 18.6667C7.33329 19.1087 7.50889 19.5327 7.82145 19.8452C8.13401 20.1578 8.55793 20.3334 8.99996 20.3334H19C19.442 20.3334 19.8659 20.1578 20.1785 19.8452C20.491 19.5327 20.6666 19.1087 20.6666 18.6667C20.6666 18.2247 20.491 17.8008 20.1785 17.4882C19.8659 17.1756 19.442 17 19 17H8.99996ZM27.3333 11.9C27.3159 11.7469 27.2824 11.5961 27.2333 11.45V11.3C27.1532 11.1287 27.0463 10.9711 26.9166 10.8334V10.8334L16.9166 0.833374C16.7788 0.703734 16.6213 0.596842 16.45 0.516707C16.4002 0.509641 16.3497 0.509641 16.3 0.516707C16.1306 0.419609 15.9437 0.357281 15.75 0.333374H5.66663C4.34054 0.333374 3.06877 0.860158 2.13109 1.79784C1.19341 2.73552 0.666626 4.00729 0.666626 5.33337V28.6667C0.666626 29.9928 1.19341 31.2646 2.13109 32.2022C3.06877 33.1399 4.34054 33.6667 5.66663 33.6667H22.3333C23.6594 33.6667 24.9311 33.1399 25.8688 32.2022C26.8065 31.2646 27.3333 29.9928 27.3333 28.6667V12C27.3333 12 27.3333 12 27.3333 11.9ZM17.3333 6.01671L21.65 10.3334H19C18.5579 10.3334 18.134 10.1578 17.8214 9.84522C17.5089 9.53266 17.3333 9.10874 17.3333 8.66671V6.01671ZM24 28.6667C24 29.1087 23.8244 29.5327 23.5118 29.8452C23.1992 30.1578 22.7753 30.3334 22.3333 30.3334H5.66663C5.2246 30.3334 4.80068 30.1578 4.48811 29.8452C4.17555 29.5327 3.99996 29.1087 3.99996 28.6667V5.33337C3.99996 4.89135 4.17555 4.46742 4.48811 4.15486C4.80068 3.8423 5.2246 3.66671 5.66663 3.66671H14V8.66671C14 9.99279 14.5267 11.2646 15.4644 12.2022C16.4021 13.1399 17.6739 13.6667 19 13.6667H24V28.6667ZM19 23.6667H8.99996C8.55793 23.6667 8.13401 23.8423 7.82145 24.1549C7.50889 24.4674 7.33329 24.8913 7.33329 25.3334C7.33329 25.7754 7.50889 26.1993 7.82145 26.5119C8.13401 26.8244 8.55793 27 8.99996 27H19C19.442 27 19.8659 26.8244 20.1785 26.5119C20.491 26.1993 20.6666 25.7754 20.6666 25.3334C20.6666 24.8913 20.491 24.4674 20.1785 24.1549C19.8659 23.8423 19.442 23.6667 19 23.6667Z" fill="#F001F4"/>
</svg>
