<svg width="43" height="40" viewBox="0 0 43 40" fill="none" xmlns="http://www.w3.org/2000/svg">
<path d="M19.5723 0.85233C18.9101 1.21351 18.87 1.43423 18.9904 3.22005L19.1308 4.94568L17.5858 5.30686C15.5792 5.76836 13.6931 6.7315 11.9875 8.13608C9.45929 10.243 7.95438 12.6508 7.17183 15.8613C6.75045 17.5468 6.69026 17.6672 6.20868 17.6672C4.32253 17.6672 1.97488 19.4931 1.29265 21.4796C0.55023 23.6667 1.0318 26.195 2.51664 28.1614C3.27913 29.1647 4.9245 30.1077 5.92777 30.1077C6.50967 30.1077 6.5498 30.1679 6.91098 31.412C7.43268 33.2379 8.87739 35.2445 10.8037 36.7695C13.8937 39.2174 16.5625 40 21.9801 40C27.3978 40 30.0665 39.2174 33.1566 36.7695C35.0829 35.2445 36.5276 33.2379 37.0493 31.412C37.4104 30.1679 37.4506 30.1077 38.0325 30.1077C39.0558 30.1077 40.7012 29.1647 41.4637 28.1213C44.5337 23.9677 42.788 18.5099 38.1328 17.7073L37.2901 17.5668L36.9289 16.1623C35.8654 12.0288 34.0996 9.40021 30.9694 7.27327C29.5047 6.29006 28.3609 5.7483 26.6955 5.32692C25.6722 5.06607 25.331 4.82529 23.9465 3.46084C22.4216 1.95593 20.6357 0.611545 20.1943 0.611545C20.0739 0.611545 19.793 0.731938 19.5723 0.85233ZM23.1239 6.41046C24.087 7.47392 24.2876 7.59432 25.3912 7.81504C26.0534 7.93543 27.3376 8.39694 28.2405 8.83837C31.2303 10.3232 33.277 12.9117 34.2401 16.4632C34.8822 18.7908 34.6013 22.7437 33.6983 24.5295C33.1766 25.5529 33.2168 25.894 34.0395 27.5394C34.8822 29.2048 34.8822 30.0275 34.0194 31.6929C33.0964 33.559 30.2471 35.9267 28.1402 36.6089C25.2107 37.5721 18.7496 37.5721 15.82 36.6089C13.673 35.9067 10.8839 33.5791 9.92079 31.6929C9.09811 30.0275 9.09811 29.2449 9.92079 27.4992C10.7435 25.7937 10.7836 25.4526 10.2619 24.4894C9.43922 22.9444 9.11817 19.9346 9.53955 17.5869C10.1214 14.2159 11.7267 11.6074 14.3352 9.74132C15.9204 8.61765 17.0842 8.11602 18.9703 7.77491C20.7361 7.43379 20.9367 7.29334 21.3982 6.10948C21.5788 5.6279 21.7995 5.2266 21.8999 5.2266C21.9801 5.2266 22.5219 5.7483 23.1239 6.41046ZM6.71032 21.4997C6.77052 22.1618 6.97117 23.2654 7.15176 23.9476C7.45274 25.0914 7.45274 25.272 7.11163 26.3354C6.85078 27.2384 6.67019 27.4992 6.36921 27.4992C5.62679 27.4992 4.66365 26.6966 4.14194 25.6532C3.09854 23.5664 3.7005 21.3793 5.52646 20.5566C6.4896 20.1352 6.56986 20.1954 6.71032 21.4997ZM38.9154 20.8576C40.3801 21.901 40.7413 23.6868 39.8584 25.5529C39.3367 26.6565 38.3937 27.4992 37.6713 27.4992C37.4706 27.4992 37.2098 27.0578 36.9489 26.2351C36.5677 25.0713 36.5476 24.9309 36.8285 24.0078C36.9891 23.446 37.1897 22.3825 37.27 21.6201C37.3904 20.2757 37.3904 20.2556 37.9121 20.376C38.193 20.4362 38.6545 20.6569 38.9154 20.8576Z" fill="#F001F4"/>
</svg>
