<svg width="37" height="29" viewBox="0 0 37 29" fill="none" xmlns="http://www.w3.org/2000/svg">
<path d="M18.9875 14.8575C19.8546 14.107 20.55 13.1787 21.0267 12.1357C21.5033 11.0926 21.75 9.95928 21.75 8.8125C21.75 6.65762 20.894 4.59099 19.3702 3.06726C17.8465 1.54352 15.7799 0.6875 13.625 0.6875C11.4701 0.6875 9.40349 1.54352 7.87976 3.06726C6.35602 4.59099 5.5 6.65762 5.5 8.8125C5.49999 9.95928 5.74668 11.0926 6.22333 12.1357C6.69998 13.1787 7.39544 14.107 8.2625 14.8575C5.98773 15.8876 4.05776 17.551 2.70334 19.6489C1.34893 21.7468 0.627392 24.1904 0.625 26.6875C0.625 27.1185 0.796205 27.5318 1.10095 27.8365C1.4057 28.1413 1.81902 28.3125 2.25 28.3125C2.68098 28.3125 3.0943 28.1413 3.39905 27.8365C3.7038 27.5318 3.875 27.1185 3.875 26.6875C3.875 24.1016 4.90223 21.6217 6.73071 19.7932C8.55919 17.9647 11.0391 16.9375 13.625 16.9375C16.2109 16.9375 18.6908 17.9647 20.5193 19.7932C22.3478 21.6217 23.375 24.1016 23.375 26.6875C23.375 27.1185 23.5462 27.5318 23.851 27.8365C24.1557 28.1413 24.569 28.3125 25 28.3125C25.431 28.3125 25.8443 28.1413 26.1491 27.8365C26.4538 27.5318 26.625 27.1185 26.625 26.6875C26.6226 24.1904 25.9011 21.7468 24.5467 19.6489C23.1922 17.551 21.2623 15.8876 18.9875 14.8575V14.8575ZM13.625 13.6875C12.6608 13.6875 11.7183 13.4016 10.9166 12.8659C10.1149 12.3302 9.49007 11.5689 9.12109 10.6781C8.75211 9.78729 8.65557 8.80709 8.84367 7.86143C9.03178 6.91578 9.49607 6.04714 10.1779 5.36535C10.8596 4.68357 11.7283 4.21928 12.6739 4.03117C13.6196 3.84307 14.5998 3.93961 15.4906 4.30859C16.3814 4.67757 17.1427 5.30241 17.6784 6.1041C18.2141 6.90578 18.5 7.84832 18.5 8.8125C18.5 10.1054 17.9864 11.3454 17.0721 12.2596C16.1579 13.1739 14.9179 13.6875 13.625 13.6875ZM29.4525 14.2075C30.4924 13.0364 31.1718 11.5897 31.4087 10.0416C31.6456 8.49339 31.43 6.90975 30.7879 5.48125C30.1457 4.05275 29.1044 2.84029 27.7893 1.98981C26.4741 1.13933 24.9412 0.687081 23.375 0.6875C22.944 0.6875 22.5307 0.858705 22.226 1.16345C21.9212 1.4682 21.75 1.88152 21.75 2.3125C21.75 2.74348 21.9212 3.1568 22.226 3.46155C22.5307 3.7663 22.944 3.9375 23.375 3.9375C24.6679 3.9375 25.9079 4.45112 26.8221 5.36535C27.7364 6.27959 28.25 7.51957 28.25 8.8125C28.2477 9.66601 28.0214 10.504 27.5936 11.2426C27.1658 11.9812 26.5517 12.5945 25.8125 13.0213C25.5716 13.1602 25.3704 13.3587 25.2281 13.5977C25.0858 13.8367 25.0073 14.1082 25 14.3863C24.9932 14.6621 25.0568 14.9352 25.1847 15.1797C25.3126 15.4242 25.5007 15.6321 25.7313 15.7837L26.365 16.2063L26.5763 16.32C28.535 17.249 30.1875 18.7185 31.3391 20.5553C32.4907 22.392 33.0934 24.5196 33.0763 26.6875C33.0763 27.1185 33.2475 27.5318 33.5522 27.8365C33.857 28.1413 34.2703 28.3125 34.7013 28.3125C35.1322 28.3125 35.5456 28.1413 35.8503 27.8365C36.155 27.5318 36.3263 27.1185 36.3263 26.6875C36.3395 24.1938 35.715 21.7382 34.5119 19.5539C33.3088 17.3695 31.5672 15.5291 29.4525 14.2075V14.2075Z" fill="#F001F4"/>
</svg>
