<svg width="38" height="36" viewBox="0 0 38 36" fill="none" xmlns="http://www.w3.org/2000/svg">
<path d="M37.9363 13.6178C37.8164 13.2735 37.5985 12.971 37.3088 12.7472C37.0192 12.5233 36.6703 12.3876 36.3045 12.3565L25.5082 10.7941L20.6698 1.0619C20.5144 0.743637 20.2718 0.475226 19.9698 0.287418C19.6678 0.0996092 19.3185 0 18.9621 0C18.6056 0 18.2564 0.0996092 17.9544 0.287418C17.6524 0.475226 17.4098 0.743637 17.2544 1.0619L12.416 10.7753L1.61969 12.3565C1.26852 12.4061 0.938375 12.5522 0.666715 12.7785C0.395054 13.0048 0.192758 13.302 0.0827839 13.6366C-0.0178836 13.9635 -0.0269173 14.3115 0.0566522 14.6431C0.140222 14.9748 0.31324 15.2776 0.557138 15.519L8.39347 23.0488L6.49605 33.7411C6.42832 34.094 6.46379 34.4588 6.59827 34.7923C6.73276 35.1259 6.96064 35.4143 7.25502 35.6235C7.54194 35.827 7.88036 35.9471 8.23228 35.9704C8.5842 35.9937 8.9357 35.9192 9.24731 35.7553L18.9621 30.7292L28.6389 35.7741C28.9052 35.9231 29.206 36.001 29.5117 36C29.9136 36.0014 30.3056 35.8762 30.6312 35.6423C30.9256 35.4331 31.1535 35.1447 31.288 34.8111C31.4224 34.4776 31.4579 34.1128 31.3902 33.7599L29.4928 23.0676L37.3291 15.5379C37.603 15.3076 37.8055 15.005 37.913 14.6651C38.0205 14.3252 38.0285 13.962 37.9363 13.6178ZM26.2671 21.1475C26.0446 21.3611 25.8781 21.6254 25.7822 21.9174C25.6863 22.2094 25.6639 22.5203 25.7169 22.8229L27.083 30.7103L19.9487 26.9455C19.6742 26.8004 19.368 26.7246 19.057 26.7246C18.7459 26.7246 18.4397 26.8004 18.1652 26.9455L11.0309 30.7103L12.397 22.8229C12.45 22.5203 12.4276 22.2094 12.3317 21.9174C12.2358 21.6254 12.0693 21.3611 11.8468 21.1475L6.15452 15.5002L14.1426 14.3519C14.45 14.3095 14.7422 14.1929 14.9936 14.0124C15.245 13.8319 15.448 13.593 15.5847 13.3166L18.9621 6.14449L22.5292 13.3354C22.6659 13.6118 22.8689 13.8508 23.1203 14.0313C23.3717 14.2118 23.6639 14.3283 23.9713 14.3708L31.9594 15.519L26.2671 21.1475Z" fill="#F001F4"/>
</svg>
