<svg width="30" height="31" viewBox="0 0 30 31" fill="none" xmlns="http://www.w3.org/2000/svg">
<path d="M29.8541 9.3836C29.8541 8.88627 29.6575 8.40931 29.3076 8.05764C28.9576 7.70598 28.483 7.50841 27.988 7.50841H6.36L10.652 3.21424C11.0034 2.86113 11.2008 2.38222 11.2008 1.88286C11.2008 1.38349 11.0034 0.904581 10.652 0.551476C10.3006 0.198372 9.82403 3.72056e-09 9.32709 0C8.83015 -3.72056e-09 8.35355 0.198372 8.00216 0.551476L0.537783 8.05222C0.278848 8.31591 0.103442 8.65077 0.0336986 9.01454C-0.0360451 9.3783 0.00299862 9.75468 0.145903 10.0962C0.285898 10.4386 0.523634 10.7318 0.829152 10.9386C1.13467 11.1455 1.4943 11.2569 1.86271 11.2588H27.988C28.483 11.2588 28.9576 11.0612 29.3076 10.7096C29.6575 10.3579 29.8541 9.88093 29.8541 9.3836ZM29.8541 20.9006C29.7141 20.5582 29.4764 20.265 29.1708 20.0581C28.8653 19.8513 28.5057 19.7399 28.1373 19.738H2.01197C1.51705 19.738 1.0424 19.9356 0.69244 20.2872C0.34248 20.6389 0.145873 21.1159 0.145873 21.6132C0.145873 22.1105 0.34248 22.5875 0.69244 22.9392C1.0424 23.2908 1.51705 23.4884 2.01197 23.4884H23.64L19.348 27.7826C19.1731 27.9569 19.0343 28.1643 18.9395 28.3928C18.8448 28.6213 18.796 28.8664 18.796 29.1139C18.796 29.3615 18.8448 29.6066 18.9395 29.8351C19.0343 30.0636 19.1731 30.271 19.348 30.4453C19.5215 30.6211 19.7279 30.7606 19.9553 30.8558C20.1827 30.951 20.4266 31 20.6729 31C20.9193 31 21.1632 30.951 21.3906 30.8558C21.618 30.7606 21.8244 30.6211 21.9978 30.4453L29.4622 22.9446C29.7211 22.6809 29.8966 22.346 29.9663 21.9823C30.036 21.6185 29.997 21.2421 29.8541 20.9006Z" fill="#F001F4"/>
</svg>
