<svg width="29" height="28" viewBox="0 0 29 28" fill="none" xmlns="http://www.w3.org/2000/svg">
<path d="M14.3361 26.6307L14.3361 26.6307L14.3334 26.6277C14.079 26.3511 13.8749 26.0196 13.7349 25.6512C13.5949 25.2828 13.5223 24.8863 13.5223 24.4848C13.5223 24.0833 13.5949 23.6868 13.7349 23.3184C13.8749 22.95 14.079 22.6185 14.3334 22.3419L14.334 22.3412L21.6668 14.3378L21.9762 14L21.6668 13.6622L14.334 5.65883L14.3334 5.65813C14.079 5.38154 13.8749 5.05003 13.7349 4.68164C13.5949 4.31322 13.5223 3.91666 13.5223 3.5152C13.5223 3.11374 13.5949 2.71718 13.7349 2.34876C13.8749 1.98036 14.079 1.64885 14.3334 1.37227L14.3361 1.36925C14.5884 1.09038 14.8861 0.871783 15.2106 0.723599C15.5349 0.575486 15.8808 0.499999 16.2289 0.499999C16.5771 0.499999 16.923 0.575486 17.2473 0.723597C17.5718 0.871783 17.8694 1.09038 18.1218 1.36926L18.1231 1.37076L27.6876 11.8556L27.6889 11.8571C27.9433 12.1337 28.1474 12.4652 28.2874 12.8336C28.4274 13.202 28.5 13.5985 28.5 14C28.5 14.4015 28.4274 14.798 28.2874 15.1664C28.1474 15.5348 27.9433 15.8663 27.6889 16.1429L27.6876 16.1444L18.1231 26.6292L18.1218 26.6307C17.8694 26.9096 17.5718 27.1282 17.2473 27.2764C16.923 27.4245 16.5771 27.5 16.2289 27.5C15.8808 27.5 15.5349 27.4245 15.2106 27.2764C14.8861 27.1282 14.5884 26.9096 14.3361 26.6307ZM8.76905 14.3409L9.08684 14L8.76905 13.6591L1.31107 5.65813C1.31071 5.65774 1.31036 5.65736 1.31001 5.65697C1.05612 5.38062 0.852394 5.04952 0.712582 4.68164C0.572563 4.31321 0.500002 3.91665 0.500002 3.5152C0.500002 3.11374 0.572563 2.71718 0.712582 2.34875C0.852589 1.98036 1.05669 1.64885 1.31107 1.37227L1.31382 1.36925C1.56614 1.09038 1.8638 0.871782 2.18827 0.723596C2.51257 0.575487 2.85852 0.5 3.20663 0.499998C3.55474 0.5 3.9007 0.575487 4.225 0.723596C4.54947 0.871782 4.84713 1.09038 5.09945 1.36925L5.10082 1.37076L14.6652 11.8556L14.6666 11.8571C14.921 12.1337 15.1251 12.4652 15.2651 12.8336C15.4051 13.202 15.4777 13.5985 15.4777 14C15.4777 14.4015 15.4051 14.798 15.2651 15.1664C15.1251 15.5348 14.921 15.8663 14.6666 16.1429L14.6652 16.1444L5.10082 26.6292C4.58995 27.1893 3.90743 27.494 3.20663 27.494C2.50583 27.494 1.82331 27.1893 1.31244 26.6292C0.800177 26.0677 0.505444 25.297 0.505444 24.4848C0.505444 23.6735 0.799525 22.9036 1.31075 22.3422C1.31131 22.3416 1.31188 22.341 1.31245 22.3404L8.76905 14.3409Z" fill="#515189" stroke="#170F26"/>
</svg>
