<svg xmlns="http://www.w3.org/2000/svg" xmlns:xlink="http://www.w3.org/1999/xlink" width="20.066" height="14.837" viewBox="0 0 20.066 14.837">
  <defs>
    <linearGradient id="linear-gradient" y1="-0.12" x2="0.833" y2="0.903" gradientUnits="objectBoundingBox">
      <stop offset="0" stop-color="#ffca94"/>
      <stop offset="0.328" stop-color="#ff9529"/>
      <stop offset="0.686" stop-color="#ff8508"/>
      <stop offset="1" stop-color="#f40"/>
    </linearGradient>
  </defs>
  <path id="account" d="M29.864,45.706a.657.657,0,0,1,.093.716.666.666,0,0,1-.607.388H14.886a.666.666,0,0,1-.607-.388.657.657,0,0,1,.093-.716,9.98,9.98,0,0,1,4.7-3.144,5.732,5.732,0,1,1,6.086,0A9.979,9.979,0,0,1,29.864,45.706Zm4.324-3.447a.674.674,0,0,1-.59.337.641.641,0,0,1-.337-.093l-.388-.228a2.023,2.023,0,0,1-.641.371V43.1a.674.674,0,0,1-1.349,0v-.455a2.023,2.023,0,0,1-.641-.371l-.388.228a.641.641,0,0,1-.337.093.674.674,0,0,1-.337-1.256l.388-.228a2.057,2.057,0,0,1,0-.742l-.388-.228a.666.666,0,0,1-.253-.919.683.683,0,0,1,.927-.244l.388.228a2.023,2.023,0,0,1,.641-.371v-.455a.674.674,0,0,1,1.349,0v.455a2.023,2.023,0,0,1,.641.371l.388-.228a.683.683,0,0,1,.927.244.666.666,0,0,1-.253.919l-.388.228a2.056,2.056,0,0,1,0,.742l.388.228a.666.666,0,0,1,.253.919Zm-2.63-.843a.674.674,0,1,0-.674-.674A.674.674,0,0,0,31.558,41.416Z" transform="translate(-14.213 -31.974)" fill="url(#linear-gradient)"/>
</svg>
