<svg width="23" height="23" viewBox="0 0 23 23" fill="none" xmlns="http://www.w3.org/2000/svg">
<path d="M2.65745 20.9554C3.73658 22.0312 5.1982 22.6353 6.72196 22.6353C8.24573 22.6353 9.70734 22.0312 10.7865 20.9554L17.3006 14.4398C17.6357 14.1067 17.9014 13.7104 18.0822 13.2739C18.263 12.8373 18.3553 12.3693 18.3537 11.8968C18.3537 11.4251 18.2608 10.958 18.0801 10.5223C17.8995 10.0866 17.6348 9.69079 17.301 9.35746C16.9673 9.02414 16.5712 8.75987 16.1352 8.57976C15.6993 8.39966 15.2321 8.30724 14.7605 8.30781C13.841 8.30781 12.9229 8.6555 12.2218 9.35662L9.17302 12.4039C8.63504 12.9432 8.3329 13.6738 8.3329 14.4355C8.3329 15.1972 8.63504 15.9278 9.17302 16.467L14.2533 11.3882C14.3882 11.2533 14.5711 11.1775 14.7619 11.1775C14.9527 11.1775 15.1356 11.2533 15.2705 11.3882C15.4054 11.5231 15.4812 11.706 15.4812 11.8968C15.4812 12.0875 15.4054 12.2705 15.2705 12.4054L8.75493 18.9238C8.21485 19.4613 7.48391 19.763 6.72196 19.763C5.96002 19.763 5.22907 19.4613 4.68899 18.9238C4.15135 18.3844 3.84946 17.6539 3.84946 16.8923C3.84946 16.1307 4.15135 15.4002 4.68899 14.8607L11.2074 8.34229L14.8495 4.70018C15.389 4.16254 16.1195 3.86065 16.8811 3.86065C17.6427 3.86065 18.3732 4.16254 18.9126 4.70018C19.451 5.23922 19.7533 5.96989 19.7533 6.73172C19.7533 7.49354 19.451 8.22421 18.9126 8.76325L18.7761 8.90118C19.4312 9.78427 19.7848 10.8547 19.7847 11.9542L20.9442 10.7948C22.0205 9.71652 22.625 8.25524 22.625 6.73172C22.625 5.20819 22.0205 3.7469 20.9442 2.66864C19.8249 1.54943 18.3523 0.987664 16.8811 0.987664C15.4099 0.987664 13.9372 1.54943 12.818 2.66864L2.65745 12.8292C1.58112 13.9075 0.976611 15.3687 0.976612 16.8923C0.976612 18.4158 1.58112 19.8771 2.65745 20.9554Z" fill="white"/>
</svg>
