<svg width="34" height="31" viewBox="0 0 34 31" fill="none" xmlns="http://www.w3.org/2000/svg">
<path d="M32.674 15.5C33.5202 14.5568 33.9925 13.3301 34 12.0556C34 10.6853 33.4627 9.37111 32.5062 8.40217C31.5498 7.43323 30.2526 6.88889 28.9 6.88889H20.094C20.3656 6.11075 20.4492 5.27802 20.3378 4.46043C20.2265 3.64283 19.9234 2.86416 19.4539 2.1896C18.9845 1.51505 18.3624 0.964233 17.6397 0.583279C16.917 0.202325 16.1147 0.00231727 15.3 0H5.1C3.7474 0 2.45019 0.544344 1.49376 1.51328C0.53732 2.48222 0 3.79638 0 5.16667C0.00749804 6.44121 0.479758 7.66796 1.326 8.61111C0.489677 9.55837 0.0273156 10.7847 0.0273156 12.0556C0.0273156 13.3264 0.489677 14.5527 1.326 15.5C0.489677 16.4473 0.0273156 17.6736 0.0273156 18.9444C0.0273156 20.2153 0.489677 21.4416 1.326 22.3889C0.479758 23.332 0.00749804 24.5588 0 25.8333C0 27.2036 0.53732 28.5178 1.49376 29.4867C2.45019 30.4557 3.7474 31 5.1 31H28.9C29.8822 30.9947 30.842 30.7021 31.664 30.1576C32.4861 29.613 33.1354 28.8395 33.534 27.93C33.9325 27.0206 34.0634 26.0139 33.9109 25.0309C33.7583 24.048 33.3288 23.1305 32.674 22.3889C33.5103 21.4416 33.9727 20.2153 33.9727 18.9444C33.9727 17.6736 33.5103 16.4473 32.674 15.5ZM15.3 27.5556H5.1C4.64913 27.5556 4.21673 27.3741 3.89792 27.0511C3.57911 26.7282 3.4 26.2901 3.4 25.8333C3.4 25.3766 3.57911 24.9385 3.89792 24.6155C4.21673 24.2926 4.64913 24.1111 5.1 24.1111H15.3C15.7509 24.1111 16.1833 24.2926 16.5021 24.6155C16.8209 24.9385 17 25.3766 17 25.8333C17 26.2901 16.8209 26.7282 16.5021 27.0511C16.1833 27.3741 15.7509 27.5556 15.3 27.5556ZM15.3 20.6667H5.1C4.64913 20.6667 4.21673 20.4852 3.89792 20.1622C3.57911 19.8393 3.4 19.4012 3.4 18.9444C3.4 18.4877 3.57911 18.0496 3.89792 17.7267C4.21673 17.4037 4.64913 17.2222 5.1 17.2222H15.3C15.7509 17.2222 16.1833 17.4037 16.5021 17.7267C16.8209 18.0496 17 18.4877 17 18.9444C17 19.4012 16.8209 19.8393 16.5021 20.1622C16.1833 20.4852 15.7509 20.6667 15.3 20.6667ZM15.3 13.7778H5.1C4.64913 13.7778 4.21673 13.5963 3.89792 13.2733C3.57911 12.9504 3.4 12.5123 3.4 12.0556C3.4 11.5988 3.57911 11.1607 3.89792 10.8378C4.21673 10.5148 4.64913 10.3333 5.1 10.3333H15.3C15.7509 10.3333 16.1833 10.5148 16.5021 10.8378C16.8209 11.1607 17 11.5988 17 12.0556C17 12.5123 16.8209 12.9504 16.5021 13.2733C16.1833 13.5963 15.7509 13.7778 15.3 13.7778ZM15.3 6.88889H5.1C4.64913 6.88889 4.21673 6.70744 3.89792 6.38446C3.57911 6.06148 3.4 5.62343 3.4 5.16667C3.4 4.7099 3.57911 4.27185 3.89792 3.94887C4.21673 3.62589 4.64913 3.44444 5.1 3.44444H15.3C15.7509 3.44444 16.1833 3.62589 16.5021 3.94887C16.8209 4.27185 17 4.7099 17 5.16667C17 5.62343 16.8209 6.06148 16.5021 6.38446C16.1833 6.70744 15.7509 6.88889 15.3 6.88889ZM30.073 27.0561C29.9223 27.2171 29.7402 27.3447 29.5383 27.4307C29.3364 27.5166 29.119 27.5592 28.9 27.5556H20.094C20.5017 26.4445 20.5017 25.2221 20.094 24.1111H28.9C29.3509 24.1111 29.7833 24.2926 30.1021 24.6155C30.4209 24.9385 30.6 25.3766 30.6 25.8333C30.5969 26.0624 30.5486 26.2886 30.4581 26.4985C30.3676 26.7085 30.2367 26.898 30.073 27.0561ZM30.073 20.1672C29.9223 20.3282 29.7402 20.4558 29.5383 20.5418C29.3364 20.6277 29.119 20.6703 28.9 20.6667H20.094C20.5017 19.5557 20.5017 18.3332 20.094 17.2222H28.9C29.3509 17.2222 29.7833 17.4037 30.1021 17.7267C30.4209 18.0496 30.6 18.4877 30.6 18.9444C30.5969 19.1735 30.5486 19.3997 30.4581 19.6096C30.3676 19.8196 30.2367 20.0092 30.073 20.1672ZM30.073 13.2783C29.9223 13.4394 29.7402 13.5669 29.5383 13.6529C29.3364 13.7389 29.119 13.7814 28.9 13.7778H20.094C20.5017 12.6668 20.5017 11.4443 20.094 10.3333H28.9C29.3509 10.3333 29.7833 10.5148 30.1021 10.8378C30.4209 11.1607 30.6 11.5988 30.6 12.0556C30.5969 12.2846 30.5486 12.5108 30.4581 12.7207C30.3676 12.9307 30.2367 13.1203 30.073 13.2783Z" fill="#F001F4"/>
</svg>
