<svg width="33" height="33" viewBox="0 0 33 33" fill="none" xmlns="http://www.w3.org/2000/svg">
<circle cx="16.1687" cy="16.324" r="16" fill="white"/>
<circle cx="16.1687" cy="16.3239" r="14.2922" stroke="#322C76"/>
<g clip-path="url(#clip0_76_4710)">
<path d="M21.4797 12.8627C21.578 13.4164 21.502 13.9891 21.2634 14.4922C21.0249 14.9954 20.637 15.4012 20.1597 15.6467L20.1456 15.6535C20.8409 15.7939 21.469 16.1859 21.923 16.7627L21.9273 16.768C22.2414 17.266 22.4291 17.8787 22.4291 18.538C22.4291 18.73 22.4129 18.919 22.3826 19.102L22.3854 19.0825C22.3489 19.5595 22.2335 20.0259 22.0444 20.4602L22.0543 20.4347C21.8982 20.7972 21.6755 21.1228 21.3993 21.3925L21.3971 21.3947C21.1114 21.6599 20.785 21.8712 20.4322 22.0195L20.4096 22.0277C20.0229 22.1961 19.62 22.3193 19.2082 22.3952L19.1722 22.4012C18.7444 22.4807 18.2348 22.5385 17.7167 22.5625L17.6913 22.5632V25.3247H16.1235V22.6097C15.5804 22.6097 15.1663 22.6062 14.8811 22.5992V25.3247H13.3134V22.5647C13.191 22.5647 13.0077 22.563 12.7635 22.5595C12.5193 22.556 12.3324 22.5542 12.203 22.5542H10.168L10.4835 20.5742H11.6129C11.686 20.581 11.7597 20.572 11.8295 20.5477C11.8992 20.5234 11.9637 20.4844 12.0189 20.4329C12.0741 20.3815 12.1189 20.3187 12.1507 20.2484C12.1824 20.1781 12.2005 20.1017 12.2037 20.0237V15.6737H12.3661C12.3179 15.6664 12.2693 15.6626 12.2207 15.6625H12.203H12.2037V12.5582C12.1739 12.333 12.0615 12.1294 11.8908 11.9919C11.7202 11.8545 11.5053 11.7944 11.2931 11.8247L11.2974 11.824H10.168V10.0495L12.3266 10.06C12.7609 10.06 13.0901 10.0565 13.3141 10.0495V7.32399H14.8819V9.99549C15.4381 9.98099 15.8522 9.97374 16.1242 9.97374V7.32324H17.692V10.0487C18.2221 10.0945 18.7084 10.1807 19.18 10.3067L19.1171 10.2925C19.5279 10.401 19.9227 10.5691 20.2903 10.792L20.2677 10.7792C20.6129 10.9855 20.896 11.2705 21.1021 11.6132L21.1077 11.623C21.3226 11.9955 21.4501 12.4173 21.4797 12.853L21.4804 12.862L21.4797 12.8627ZM19.2908 18.7585V18.73C19.2908 18.487 19.2343 18.259 19.1348 18.058L19.1383 18.0655C19.0455 17.8759 18.9183 17.7077 18.7642 17.5705L18.7621 17.5682C18.5903 17.426 18.397 17.3159 18.1903 17.2427L18.1769 17.2382C17.9702 17.1575 17.7584 17.0926 17.543 17.044L17.5106 17.038C17.2672 16.9889 17.021 16.9568 16.7736 16.942L16.7574 16.9412C16.459 16.9197 16.2249 16.909 16.055 16.909C15.8851 16.909 15.6663 16.9125 15.3986 16.9195C15.1308 16.9265 14.9696 16.93 14.915 16.93V20.584C14.9691 20.584 15.0948 20.5857 15.292 20.5892C15.4891 20.5927 15.652 20.5945 15.7804 20.5945C15.9089 20.5945 16.0889 20.589 16.3204 20.578C16.552 20.567 16.7506 20.5525 16.9162 20.5345C17.0819 20.5165 17.2753 20.486 17.4964 20.443C17.7153 20.4025 17.9051 20.35 18.0887 20.2832L18.0611 20.2922C18.2503 20.2202 18.4099 20.1437 18.5623 20.0552L18.544 20.065C18.7 19.9795 18.8334 19.8707 18.9449 19.7417L18.9456 19.741C19.0473 19.618 19.1313 19.4747 19.192 19.3187L19.1955 19.3082C19.2594 19.1395 19.292 18.9592 19.2915 18.7772V18.757V18.7577L19.2908 18.7585ZM18.568 13.609V13.5812C18.568 13.3615 18.5207 13.1537 18.4374 12.9677L18.4409 12.976C18.365 12.8056 18.2599 12.6517 18.131 12.5222L18.1303 12.5215C17.9895 12.3923 17.8275 12.2919 17.6524 12.2252L17.6419 12.2215C17.4678 12.147 17.2881 12.0883 17.1047 12.046L17.0814 12.0415C16.8805 12.0004 16.6776 11.9719 16.4736 11.956L16.4546 11.9545C16.207 11.933 16.0101 11.924 15.8637 11.9275C15.7174 11.931 15.5341 11.9345 15.3139 11.938C15.0936 11.9415 14.9595 11.9432 14.9115 11.9432V15.2642L15.263 15.2695C15.4635 15.273 15.6211 15.273 15.736 15.2695C15.8508 15.266 16.0202 15.2587 16.2442 15.2477C16.4406 15.2407 16.6364 15.2194 16.8301 15.184L16.8047 15.1877C16.9553 15.1587 17.1299 15.1187 17.3284 15.0677C17.5148 15.0242 17.68 14.9552 17.8303 14.863L17.8219 14.8675C17.9561 14.7805 18.0831 14.6817 18.2016 14.572L18.1981 14.575C18.3191 14.4643 18.4127 14.3237 18.4706 14.1655L18.4727 14.1587C18.532 13.9997 18.5659 13.8152 18.5659 13.6225V13.6067V13.6075L18.568 13.609Z" fill="#F3BA2F"/>
</g>
<defs>
<clipPath id="clip0_76_4710">
<rect width="12" height="18" fill="white" transform="translate(10.1687 7.32397)"/>
</clipPath>
</defs>
</svg>
