<svg id="blackjack" xmlns="http://www.w3.org/2000/svg" xmlns:xlink="http://www.w3.org/1999/xlink" width="38" height="38" viewBox="0 0 38 38">
  <defs>
    <linearGradient id="linear-gradient" y1="-0.12" x2="0.833" y2="0.903" gradientUnits="objectBoundingBox">
      <stop offset="0" stop-color="#ffca94"/>
      <stop offset="0.328" stop-color="#ff9529"/>
      <stop offset="0.686" stop-color="#ff8508"/>
      <stop offset="1" stop-color="#f40"/>
    </linearGradient>
  </defs>
  <g id="Rectangle_726" data-name="Rectangle 726" fill="none" stroke="#ff9c37" stroke-width="1" opacity="0">
    <rect width="38" height="38" stroke="none"/>
    <rect x="0.5" y="0.5" width="37" height="37" fill="none"/>
  </g>
  <g id="Group_1925" data-name="Group 1925" transform="translate(8 8)">
    <g id="playing-cards" transform="translate(5.877 0)">
      <path id="Subtraction_2" data-name="Subtraction 2" d="M11.97,19.512h-.127c-.1-.437-.626-2.559-1.416-5.634C9.9,11.813,8.834,7.714,7.688,3.47A2.685,2.685,0,0,0,6.263,1.683a1.77,1.77,0,0,0-.994-.23c-.092,0-.169-.005-.237-.005a2.789,2.789,0,0,0-.837.126C3.947,1.645,2.226,2.108,0,2.706c0-.338,0-.676,0-1.033A1.672,1.672,0,0,1,1.673,0h10.3a1.672,1.672,0,0,1,1.673,1.673V17.839a1.672,1.672,0,0,1-1.673,1.673Z" fill="url(#linear-gradient)"/>
    </g>
    <path id="Path_5341" data-name="Path 5341" d="M10.074-408.576c-.252.072-2.245.608-4.428,1.194S1.569-406.265,1.43-406.2a2.346,2.346,0,0,0-1.251,2.2c.046.51,3.846,14.663,4.052,15.095a2.343,2.343,0,0,0,2.183,1.236c.268-.021,8.4-2.157,9.092-2.389a2.359,2.359,0,0,0,1.529-2.373c-.026-.221-1.982-7.6-3.83-14.451a2.393,2.393,0,0,0-1.277-1.6,1.577,1.577,0,0,0-.891-.206A2.605,2.605,0,0,0,10.074-408.576ZM3.715-404.3a.862.862,0,0,1,.314.232,9.359,9.359,0,0,1,.51,1.72,1,1,0,0,1-.371.644.845.845,0,0,1-.911-.072c-.19-.18-.216-.252-.443-1.112-.19-.736-.19-.875,0-1.169a1.118,1.118,0,0,1,.6-.324A1.1,1.1,0,0,1,3.715-404.3ZM8.05-402.12c.17.067,3.2,2.9,3.274,3.063a.875.875,0,0,1,.062.314c0,.221-1.158,4.011-1.292,4.227a.769.769,0,0,1-.932.263A42.745,42.745,0,0,1,5.9-397.312a.906.906,0,0,1-.077-.324c0-.2,1.169-4.041,1.282-4.217A.834.834,0,0,1,8.05-402.12Zm5.725,7.419a.9.9,0,0,1,.3.227,7.4,7.4,0,0,1,.463,1.714.764.764,0,0,1-.386.659.812.812,0,0,1-.865-.108c-.2-.18-.211-.227-.438-1.1-.206-.767-.2-.932.015-1.194A.693.693,0,0,1,13.775-394.7Z" transform="translate(-0.172 411.099)" fill="url(#linear-gradient)"/>
  </g>
</svg>
