<svg id="coinflip" xmlns="http://www.w3.org/2000/svg" xmlns:xlink="http://www.w3.org/1999/xlink" width="38" height="38" viewBox="0 0 38 38">
  <defs>
    <linearGradient id="linear-gradient" y1="-0.12" x2="0.833" y2="0.903" gradientUnits="objectBoundingBox">
      <stop offset="0" stop-color="#ffca94"/>
      <stop offset="0.328" stop-color="#ff9529"/>
      <stop offset="0.686" stop-color="#ff8508"/>
      <stop offset="1" stop-color="#f40"/>
    </linearGradient>
  </defs>
  <g id="Rectangle_726" data-name="Rectangle 726" fill="none" stroke="#fff" stroke-width="1" opacity="0">
    <rect width="38" height="38" rx="7" stroke="none"/>
    <rect x="0.5" y="0.5" width="37" height="37" rx="6.5" fill="none"/>
  </g>
  <g id="coin" transform="translate(6 5.998)">
    <path id="Path_5332" data-name="Path 5332" d="M12.35-511.547a13.112,13.112,0,0,0-10.426,7.241,11.362,11.362,0,0,0-.946,2.544A10.549,10.549,0,0,0,.6-498.576a10.548,10.548,0,0,0,.377,3.185,11.361,11.361,0,0,0,.946,2.544A13.054,13.054,0,0,0,7.872-486.9a11.454,11.454,0,0,0,2.539.941,10.621,10.621,0,0,0,3.16.377,11.87,11.87,0,0,0,4.758-.87,13.13,13.13,0,0,0,6.941-6.4A13.193,13.193,0,0,0,26.5-496.77a16.493,16.493,0,0,0,0-3.613,16.692,16.692,0,0,0-.667-2.651,15.234,15.234,0,0,0-1.364-2.677,13.061,13.061,0,0,0-9.042-5.765A18.842,18.842,0,0,0,12.35-511.547Zm2.219,3.1a9.947,9.947,0,0,1,6.233,3.068,9.9,9.9,0,0,1,.672,12.823,12.664,12.664,0,0,1-1.923,1.913,9.893,9.893,0,0,1-12.955-.931A9.9,9.9,0,0,1,3.816-496.9a12.372,12.372,0,0,1,0-3.359,10.229,10.229,0,0,1,1.868-4.3,12.839,12.839,0,0,1,1.893-1.9A9.951,9.951,0,0,1,14.568-508.448Z" transform="translate(-0.6 511.581)" fill="url(#linear-gradient)"/>
    <path id="Path_5333" data-name="Path 5333" d="M98.606-420.847A8.458,8.458,0,0,0,92-416.2a8.456,8.456,0,0,0-.555,5.923,8.424,8.424,0,0,0,8.93,6.111,8.416,8.416,0,0,0,7.439-6.936,11.829,11.829,0,0,0,.025-2.682,8.486,8.486,0,0,0-4.2-6.045A8.579,8.579,0,0,0,98.606-420.847Z" transform="translate(-86.541 425.513)" fill="url(#linear-gradient)"/>
  </g>
</svg>
