<svg width="26" height="27" viewBox="0 0 26 27" fill="none" xmlns="http://www.w3.org/2000/svg">
<path d="M1.2959 13.3726L1.29591 13.3726L1.29891 13.3698C1.55233 13.1361 1.85622 12.9485 2.19409 12.8197C2.53199 12.691 2.89578 12.6242 3.26411 12.6242C3.63245 12.6242 3.99624 12.691 4.33414 12.8197C4.67201 12.9485 4.97589 13.1361 5.22931 13.3698L5.23002 13.3704L12.6617 20.1975L13 20.5082L13.3383 20.1975L20.77 13.3705L20.7707 13.3698C21.0241 13.1361 21.328 12.9485 21.6659 12.8197C22.0038 12.691 22.3676 12.6242 22.7359 12.6242C23.1042 12.6242 23.468 12.691 23.8059 12.8197C24.1438 12.9485 24.4477 13.1361 24.7011 13.3698L24.7041 13.3726C24.9596 13.6044 25.1598 13.8777 25.2954 14.1754C25.4309 14.473 25.5 14.7904 25.5 15.1097C25.5 15.429 25.4309 15.7464 25.2954 16.044C25.1598 16.3417 24.9596 16.6151 24.7041 16.8469L24.7026 16.8482L14.9667 25.753L14.9652 25.7544C14.7118 25.9881 14.4079 26.1757 14.07 26.3045C13.7321 26.4332 13.3683 26.5 13 26.5C12.6317 26.5 12.2679 26.4332 11.93 26.3045C11.5921 26.1757 11.2882 25.9881 11.0348 25.7544L11.0333 25.753L1.29741 16.8482L1.2959 16.8469C1.04038 16.6151 0.840232 16.3417 0.704606 16.044C0.569049 15.7464 0.499999 15.429 0.499999 15.1097C0.499999 14.7904 0.569049 14.473 0.704605 14.1754C0.840232 13.8777 1.04038 13.6044 1.2959 13.3726ZM12.6586 8.18906L13 8.50815L13.3414 8.18906L20.7707 1.24558C20.7711 1.24522 20.7715 1.24485 20.7719 1.24449C21.025 1.0113 21.3285 0.82406 21.6659 0.695514C22.0038 0.566754 22.3676 0.500001 22.7359 0.500001C23.1042 0.500001 23.468 0.566754 23.8059 0.695514C24.1438 0.82426 24.4477 1.01189 24.7011 1.24558L24.7041 1.24834C24.9596 1.48014 25.1598 1.75346 25.2954 2.05122C25.4309 2.34882 25.5 2.6662 25.5 2.98548C25.5 3.30477 25.4309 3.62215 25.2954 3.91975C25.1598 4.21751 24.9596 4.49083 24.7041 4.72263L24.7026 4.72401L14.9667 13.6288L14.9652 13.6302C14.7118 13.8639 14.4079 14.0515 14.07 14.1803C13.7321 14.309 13.3683 14.3758 13 14.3758C12.6317 14.3758 12.2679 14.309 11.93 14.1803C11.5921 14.0515 11.2882 13.8639 11.0348 13.6302L11.0333 13.6288L1.29741 4.72401C0.784286 4.25469 0.505537 3.6282 0.505537 2.98549C0.505537 2.34276 0.784285 1.71628 1.29741 1.24696C1.81202 0.776277 2.51881 0.50507 3.26411 0.50507C4.00849 0.50507 4.71445 0.775604 5.2289 1.24521C5.22954 1.24579 5.23018 1.24638 5.23082 1.24696L12.6586 8.18906Z" fill="#515189" stroke="#170F26"/>
</svg>
