<svg width="29" height="29" viewBox="0 0 29 29" fill="none" xmlns="http://www.w3.org/2000/svg">
<path d="M28.6011 14.8118C28.6011 22.5845 22.2998 28.8857 14.5271 28.8857C6.75513 28.8857 0.453125 22.5845 0.453125 14.8118C0.453125 7.0398 6.75513 0.737793 14.5271 0.737793C22.2998 0.737793 28.6011 7.0398 28.6011 14.8118Z" fill="#FFCC4D"/>
<path d="M9.44495 14.8117C10.5245 14.8117 11.3997 13.5865 11.3997 12.0751C11.3997 10.5637 10.5245 9.3385 9.44495 9.3385C8.36539 9.3385 7.49023 10.5637 7.49023 12.0751C7.49023 13.5865 8.36539 14.8117 9.44495 14.8117Z" fill="#66471B"/>
<path d="M19.6095 14.8117C20.6891 14.8117 21.5642 13.5865 21.5642 12.0751C21.5642 10.5637 20.6891 9.3385 19.6095 9.3385C18.5299 9.3385 17.6548 10.5637 17.6548 12.0751C17.6548 13.5865 18.5299 14.8117 19.6095 14.8117Z" fill="#66471B"/>
<path d="M5.92627 17.3624C5.92627 20.4618 9.51982 24.3994 14.527 24.3994C19.5342 24.3994 23.1278 20.49 23.1278 17.3624C23.1278 17.3624 15.0485 19.5173 5.92627 17.3624Z" fill="#66471B"/>
<path d="M14.9534 19.1934L14.1003 19.1895C11.5858 19.1317 9.83594 18.7235 9.83594 18.7235V24.1662C9.83594 26.5119 11.3997 28.8575 14.5273 28.8575C17.6548 28.8575 19.2186 26.5119 19.2186 24.1662V18.7556C17.7158 19.0636 16.2576 19.1794 14.9534 19.1934Z" fill="#E8596E"/>
<path d="M14.5265 25.6356C14.7619 25.6356 14.9526 25.4448 14.9526 25.2094V19.1936L14.0996 19.1897V25.2094C14.1004 25.4448 14.2912 25.6356 14.5265 25.6356Z" fill="#DD2F45"/>
</svg>
