<svg width="33" height="33" viewBox="0 0 33 33" fill="none" xmlns="http://www.w3.org/2000/svg">
<circle cx="16.1687" cy="16.2371" r="16" fill="#F3BA2F"/>
<g clip-path="url(#clip0_76_4669)">
<path d="M19.8294 17.7571L21.9803 19.9072L16.1592 25.7284L10.3389 19.908L12.4898 17.7571L16.16 21.4462L19.8294 17.7571ZM23.5003 14.0869L25.6687 16.2371L23.5193 18.3872L21.3684 16.2371L23.5003 14.0869ZM16.16 14.0869L18.3102 16.2181L16.1592 18.369L14.009 16.2371L16.1592 14.0877L16.16 14.0869ZM8.81887 14.0869L10.9516 16.2371L8.82045 18.3682L6.6687 16.2371L8.81887 14.0869ZM16.1608 6.745L21.9811 12.5479L19.8302 14.6973L16.16 11.0271L12.4906 14.7163L10.3397 12.5661L16.16 6.74579L16.1608 6.745Z" fill="white"/>
</g>
<defs>
<clipPath id="clip0_76_4669">
<rect width="19" height="19" fill="white" transform="translate(6.6687 6.73706)"/>
</clipPath>
</defs>
</svg>
