<svg xmlns="http://www.w3.org/2000/svg" xmlns:xlink="http://www.w3.org/1999/xlink" width="22.03" height="20.336" viewBox="0 0 22.03 20.336">
  <defs>
    <linearGradient id="linear-gradient" y1="-0.12" x2="0.833" y2="0.903" gradientUnits="objectBoundingBox">
      <stop offset="0" stop-color="#ffca94"/>
      <stop offset="0.328" stop-color="#ff9529"/>
      <stop offset="0.686" stop-color="#ff8508"/>
      <stop offset="1" stop-color="#f40"/>
    </linearGradient>
  </defs>
  <path id="market" d="M46.03,38.757v-.042a.455.455,0,0,1-.011-.053V38.63c-.011-.021-.011-.042-.021-.064v-.021l-1.515-5.317A1.716,1.716,0,0,0,42.853,32H27.177a1.716,1.716,0,0,0-1.631,1.229l-1.515,5.317v.021c-.011.021-.011.042-.021.064v.032a.455.455,0,0,1-.011.053v1.758a4.237,4.237,0,0,0,1.695,3.389v6.779a1.7,1.7,0,0,0,1.695,1.695H42.641a1.7,1.7,0,0,0,1.695-1.695V43.863a4.237,4.237,0,0,0,1.695-3.389Zm-20.336.869h5.084v.847a2.542,2.542,0,0,1-3.718,2.256.922.922,0,0,0-.191-.117,2.531,2.531,0,0,1-1.176-2.139Zm11.863.847a2.542,2.542,0,0,1-5.084,0v-.847h5.084Zm5.6,2.139a.922.922,0,0,0-.191.117,2.542,2.542,0,0,1-3.718-2.256v-.847h5.084v.847A2.531,2.531,0,0,1,43.16,42.613Z" transform="translate(-24 -32)" fill="url(#linear-gradient)"/>
</svg>
