<svg width="54" height="54" viewBox="0 0 54 54" fill="none" xmlns="http://www.w3.org/2000/svg">
<circle cx="27" cy="27" r="27" fill="url(#paint0_linear_93_1112)"/>
<path d="M34.391 14C32.906 13.9988 31.4812 14.5886 30.4294 15.6397C29.3776 16.6909 28.7847 18.1176 28.7809 19.6067V25.8231C28.2031 25.8622 27.6123 25.8868 26.9999 25.8868C26.3874 25.8868 25.7996 25.9114 25.2189 25.9462V19.6067C25.1953 18.1305 24.5939 16.7228 23.5445 15.6873C22.4951 14.6518 21.0818 14.0714 19.6094 14.0714C18.1371 14.0714 16.7238 14.6518 15.6744 15.6873C14.625 16.7228 14.0236 18.1305 14 19.6067V34.4641C14.0236 35.9402 14.625 37.3479 15.6744 38.3834C16.7238 39.4189 18.1371 39.9993 19.6094 39.9993C21.0818 39.9993 22.4951 39.4189 23.5445 38.3834C24.5939 37.3479 25.1953 35.9402 25.2189 34.4641V28.2477C25.7967 28.2085 26.3874 28.1839 26.9999 28.1839C27.6123 28.1839 28.2002 28.1593 28.7809 28.1245V34.4641C28.8045 35.9402 29.4059 37.3479 30.4553 38.3834C31.5047 39.4189 32.918 39.9993 34.3903 39.9993C35.8626 39.9993 37.2759 39.4189 38.3253 38.3834C39.3747 37.3479 39.9761 35.9402 39.9998 34.4641V19.6067C39.9959 18.1178 39.4032 16.6914 38.3517 15.6402C37.3002 14.5891 35.8758 13.9992 34.391 14ZM19.6087 16.2971C20.4851 16.2967 21.3259 16.645 21.9466 17.2654C22.5672 17.8859 22.9171 18.7279 22.9194 19.6067V26.1895C21.2782 26.428 19.6755 26.8823 18.1527 27.5408C17.493 27.8312 16.8719 28.2029 16.3039 28.6474V19.6067C16.3062 18.7289 16.6552 17.8878 17.2746 17.2675C17.894 16.6472 18.7333 16.2983 19.6087 16.2971ZM22.9194 34.4641C22.9194 35.3445 22.5706 36.1889 21.9497 36.8114C21.3288 37.434 20.4868 37.7837 19.6087 37.7837C18.7307 37.7837 17.8886 37.434 17.2678 36.8114C16.6469 36.1889 16.2981 35.3445 16.2981 34.4641V32.9737C16.2981 31.6571 17.3381 30.4101 19.0815 29.6337C20.31 29.1023 21.5989 28.7244 22.9194 28.5084V34.4641ZM34.391 37.7736C33.5146 37.774 32.6739 37.4258 32.0532 36.8053C31.4325 36.1849 31.0827 35.3429 31.0804 34.4641V27.8812C32.7216 27.6427 34.3243 27.1884 35.847 26.5299C36.5068 26.2395 37.1279 25.8678 37.6959 25.4233V34.4641C37.6936 35.3419 37.3445 36.183 36.7251 36.8033C36.1057 37.4236 35.2664 37.7725 34.391 37.7736ZM34.9182 24.4283C33.6898 24.9597 32.4008 25.3377 31.0804 25.5537V19.6067C31.0804 18.7262 31.4292 17.8819 32.0501 17.2593C32.6709 16.6367 33.513 16.287 34.391 16.287C35.2691 16.287 36.1111 16.6367 36.732 17.2593C37.3529 17.8819 37.7017 18.7262 37.7017 19.6067V21.097C37.7017 22.4078 36.6617 23.6549 34.9182 24.4283Z" fill="white"/>
<defs>
<linearGradient id="paint0_linear_93_1112" x1="3.42" y1="49.9768" x2="50.4008" y2="2.99683" gradientUnits="userSpaceOnUse">
<stop stop-color="#00AEE9"/>
<stop offset="1" stop-color="#69FABD"/>
</linearGradient>
</defs>
</svg>
