<svg width="54" height="54" viewBox="0 0 54 54" fill="none" xmlns="http://www.w3.org/2000/svg">
<circle cx="27" cy="27" r="27" fill="#8247E5"/>
<path d="M35.3024 21.4294C34.723 21.0983 33.9781 21.0983 33.316 21.4294L28.681 24.1607L25.5358 25.8988L20.9836 28.6301C20.4042 28.9612 19.6593 28.9612 18.9972 28.6301L15.4382 26.4782C14.8588 26.1471 14.445 25.485 14.445 24.7401V20.6017C14.445 19.9395 14.776 19.2774 15.4382 18.8636L18.9972 16.7944C19.5766 16.4633 20.3215 16.4633 20.9836 16.7944L24.5426 18.9463C25.122 19.2774 25.5358 19.9395 25.5358 20.6845V23.4158L28.681 21.5949V18.7808C28.681 18.1187 28.3499 17.4565 27.6878 17.0427L21.0664 13.1526C20.487 12.8215 19.7421 12.8215 19.08 13.1526L12.293 17.1254C11.6309 17.4565 11.2998 18.1187 11.2998 18.7808V26.561C11.2998 27.2231 11.6309 27.8852 12.293 28.2991L18.9972 32.1892C19.5766 32.5202 20.3215 32.5202 20.9836 32.1892L25.5358 29.5406L28.681 27.7197L33.2332 25.0711C33.8126 24.7401 34.5575 24.7401 35.2196 25.0711L38.7787 27.1403C39.358 27.4714 39.7719 28.1335 39.7719 28.8784V33.0168C39.7719 33.679 39.4408 34.3411 38.7787 34.7549L35.3024 36.8241C34.723 37.1552 33.9781 37.1552 33.316 36.8241L29.757 34.7549C29.1776 34.4239 28.7638 33.7617 28.7638 33.0168V30.3683L25.6186 32.1892V34.9205C25.6186 35.5826 25.9497 36.2448 26.6118 36.6586L33.316 40.5487C33.8954 40.8798 34.6403 40.8798 35.3024 40.5487L42.0066 36.6586C42.586 36.3275 42.9998 35.6654 42.9998 34.9205V27.0576C42.9998 26.3954 42.6687 25.7333 42.0066 25.3194L35.3024 21.4294Z" fill="white"/>
</svg>
