<svg width="26" height="26" viewBox="0 0 26 26" fill="none" xmlns="http://www.w3.org/2000/svg">
<path d="M13 26C16.4478 26 19.7544 24.6304 22.1924 22.1924C24.6304 19.7544 26 16.4478 26 13C26 9.55219 24.6304 6.24558 22.1924 3.80761C19.7544 1.36964 16.4478 0 13 0C9.55219 0 6.24558 1.36964 3.80761 3.80761C1.36964 6.24558 0 9.55219 0 13C0 16.4478 1.36964 19.7544 3.80761 22.1924C6.24558 24.6304 9.55219 26 13 26V26ZM14.5113 10.7055L12.8862 18.3511C12.7725 18.9036 12.9334 19.2173 13.3803 19.2173C13.6955 19.2173 14.1716 19.1035 14.495 18.8175L14.352 19.4935C13.8856 20.0558 12.857 20.4652 11.9714 20.4652C10.829 20.4652 10.3431 19.7795 10.6584 18.3219L11.8576 12.6864C11.9616 12.2103 11.8674 12.038 11.3913 11.9226L10.6584 11.791L10.7916 11.1719L14.5129 10.7055H14.5113ZM13 8.9375C12.569 8.9375 12.1557 8.76629 11.851 8.46155C11.5462 8.1568 11.375 7.74348 11.375 7.3125C11.375 6.88152 11.5462 6.4682 11.851 6.16345C12.1557 5.8587 12.569 5.6875 13 5.6875C13.431 5.6875 13.8443 5.8587 14.149 6.16345C14.4538 6.4682 14.625 6.88152 14.625 7.3125C14.625 7.74348 14.4538 8.1568 14.149 8.46155C13.8443 8.76629 13.431 8.9375 13 8.9375V8.9375Z" fill="#F001F4"/>
</svg>
