<svg width="29" height="32" viewBox="0 0 29 32" fill="none" xmlns="http://www.w3.org/2000/svg">
<path d="M25.9995 10.6647L9.01833 0.814862C8.09946 0.278207 7.05652 -0.0029247 5.99546 2.29429e-05C4.93439 0.00297059 3.893 0.289892 2.97705 0.831644C2.06111 1.3734 1.30324 2.15068 0.78043 3.08455C0.257619 4.01841 -0.0115106 5.07558 0.000377438 6.14869V25.9194C0.000377438 27.5321 0.633779 29.0787 1.76124 30.219C2.88871 31.3594 4.41787 32 6.01235 32C7.06785 31.9982 8.10439 31.7162 9.01833 31.1821L25.9995 21.3323C26.912 20.7982 27.6695 20.0308 28.1961 19.1071C28.7228 18.1834 29 17.1359 29 16.0696C29 15.0033 28.7228 13.9558 28.1961 13.0321C27.6695 12.1084 26.912 11.341 25.9995 10.8069V10.6647ZM24.2416 18.1143L7.26045 28.1063C6.87984 28.3245 6.44983 28.4391 6.01235 28.4391C5.57487 28.4391 5.14486 28.3245 4.76425 28.1063C4.38472 27.8847 4.06956 27.5659 3.85047 27.182C3.63138 26.7981 3.51607 26.3627 3.51615 25.9194V6.07758C3.51607 5.63433 3.63138 5.19887 3.85047 4.81499C4.06956 4.43111 4.38472 4.11233 4.76425 3.89071C5.14642 3.67585 5.57516 3.55981 6.01235 3.5529C6.44924 3.56197 6.87747 3.67787 7.26045 3.89071L24.2416 13.8116C24.6213 14.0332 24.9366 14.3519 25.1558 14.7358C25.375 15.1197 25.4905 15.5552 25.4905 15.9985C25.4905 16.4418 25.375 16.8773 25.1558 17.2612C24.9366 17.6451 24.6213 17.9638 24.2416 18.1854V18.1143Z" fill="#F001F4"/>
<path d="M2 2.76471V29.2353L4.27273 31L27 16.8824V14.5294L3.70455 1L2 2.76471Z" fill="#F001F4" stroke="#953E3E"/>
</svg>
