<svg id="plinko" xmlns="http://www.w3.org/2000/svg" xmlns:xlink="http://www.w3.org/1999/xlink" width="38" height="38" viewBox="0 0 38 38">
  <defs>
    <linearGradient id="linear-gradient" y1="-0.12" x2="0.833" y2="0.903" gradientUnits="objectBoundingBox">
      <stop offset="0" stop-color="#ffca94"/>
      <stop offset="0.328" stop-color="#ff9529"/>
      <stop offset="0.686" stop-color="#ff8508"/>
      <stop offset="1" stop-color="#f40"/>
    </linearGradient>
  </defs>
  <g id="Rectangle_726" data-name="Rectangle 726" fill="none" stroke="#fff" stroke-width="1" opacity="0">
    <rect width="38" height="38" rx="7" stroke="none"/>
    <rect x="0.5" y="0.5" width="37" height="37" rx="6.5" fill="none"/>
  </g>
  <g id="Group_1924" data-name="Group 1924" transform="translate(6 6)">
    <circle id="Ellipse_412" data-name="Ellipse 412" cx="2" cy="2" r="2" transform="translate(11)" fill="url(#linear-gradient)"/>
    <circle id="Ellipse_413" data-name="Ellipse 413" cx="2" cy="2" r="2" transform="translate(7 7)" fill="url(#linear-gradient)"/>
    <circle id="Ellipse_417" data-name="Ellipse 417" cx="2" cy="2" r="2" transform="translate(11 13)" fill="url(#linear-gradient)"/>
    <circle id="Ellipse_418" data-name="Ellipse 418" cx="2" cy="2" r="2" transform="translate(3 13)" fill="url(#linear-gradient)"/>
    <circle id="Ellipse_421" data-name="Ellipse 421" cx="2" cy="2" r="2" transform="translate(0 19)" fill="url(#linear-gradient)"/>
    <circle id="Ellipse_422" data-name="Ellipse 422" cx="2" cy="2" r="2" transform="translate(7 19)" fill="url(#linear-gradient)"/>
    <circle id="Ellipse_423" data-name="Ellipse 423" cx="2" cy="2" r="2" transform="translate(14 19)" fill="url(#linear-gradient)"/>
    <circle id="Ellipse_424" data-name="Ellipse 424" cx="2" cy="2" r="2" transform="translate(21 19)" fill="url(#linear-gradient)"/>
    <circle id="Ellipse_415" data-name="Ellipse 415" cx="2" cy="2" r="2" transform="translate(15 7)" fill="url(#linear-gradient)"/>
    <circle id="Ellipse_416" data-name="Ellipse 416" cx="2" cy="2" r="2" transform="translate(18 13)" fill="url(#linear-gradient)"/>
  </g>
</svg>
