<svg xmlns="http://www.w3.org/2000/svg" xmlns:xlink="http://www.w3.org/1999/xlink" width="14.766" height="20.673" viewBox="0 0 14.766 20.673">
  <defs>
    <linearGradient id="linear-gradient" y1="-0.12" x2="0.833" y2="0.903" gradientUnits="objectBoundingBox">
      <stop offset="0" stop-color="#ffca94"/>
      <stop offset="0.328" stop-color="#ff9529"/>
      <stop offset="0.686" stop-color="#ff8508"/>
      <stop offset="1" stop-color="#f40"/>
    </linearGradient>
  </defs>
  <path id="raffles" d="M35.491,53.214a1.486,1.486,0,0,0,1.181-1.449V49.477A1.477,1.477,0,0,0,35.2,48H17.477A1.477,1.477,0,0,0,16,49.477v2.289a1.486,1.486,0,0,0,1.181,1.449,2.215,2.215,0,0,1,0,4.338A1.486,1.486,0,0,0,16,59V61.29a1.477,1.477,0,0,0,1.477,1.477H35.2a1.477,1.477,0,0,0,1.477-1.477V59a1.486,1.486,0,0,0-1.181-1.449,2.215,2.215,0,0,1,0-4.338ZM17.477,59a3.692,3.692,0,0,0,0-7.235V49.477h5.168V61.29H17.477Z" transform="translate(62.766 -16) rotate(90)" fill="url(#linear-gradient)"/>
</svg>
