<svg id="roulette" xmlns="http://www.w3.org/2000/svg" xmlns:xlink="http://www.w3.org/1999/xlink" width="38" height="38" viewBox="0 0 38 38">
  <defs>
    <linearGradient id="linear-gradient" y1="-0.12" x2="0.833" y2="0.903" gradientUnits="objectBoundingBox">
      <stop offset="0" stop-color="#ffca94"/>
      <stop offset="0.328" stop-color="#ff9529"/>
      <stop offset="0.686" stop-color="#ff8508"/>
      <stop offset="1" stop-color="#f40"/>
    </linearGradient>
  </defs>
  <g id="Rectangle_726" data-name="Rectangle 726" fill="none" stroke="#ff9c37" stroke-width="1" opacity="0">
    <rect width="38" height="38" rx="7" stroke="none"/>
    <rect x="0.5" y="0.5" width="37" height="37" rx="6.5" fill="none"/>
  </g>
  <g id="roulette-2" data-name="roulette" transform="translate(6.565 6.565)">
    <path id="Path_5318" data-name="Path 5318" d="M143.49-511.966a13.242,13.242,0,0,0-3.994,1.082l-.5.238.233.4c.131.223.408.7.616,1.058s.383.665.393.675a2.1,2.1,0,0,0,.417-.165,10.331,10.331,0,0,1,2.834-.777,4.493,4.493,0,0,0,.447-.053l.107-.019V-512l-.18.01C143.766-511.985,143.6-511.976,143.49-511.966Z" transform="translate(-132.244 512.01)" fill="url(#linear-gradient)"/>
    <path id="Path_5319" data-name="Path 5319" d="M269-510.958v1.243l.112.019c.058.01.32.049.587.078a9.58,9.58,0,0,1,2.713.767,1.95,1.95,0,0,0,.393.15c.01-.01.291-.5.626-1.078l.612-1.063-.5-.233a12.854,12.854,0,0,0-4.169-1.1L269-512.2Z" transform="translate(-255.934 512.2)" fill="url(#linear-gradient)"/>
    <path id="Path_5320" data-name="Path 5320" d="M44.925-470.049A12.733,12.733,0,0,0,41.872-467a1.237,1.237,0,0,0-.218.4c.058.053,2.058,1.208,2.1,1.208a.858.858,0,0,0,.17-.209,10.544,10.544,0,0,1,2.4-2.388.688.688,0,0,0,.2-.17c0-.044-1.145-2.038-1.2-2.1A.984.984,0,0,0,44.925-470.049Z" transform="translate(-39.62 472.291)" fill="url(#linear-gradient)"/>
    <path id="Path_5321" data-name="Path 5321" d="M371.15-470.521c-.189.306-1.15,1.99-1.15,2.019a2.435,2.435,0,0,0,.354.286,10.356,10.356,0,0,1,2.136,2.136,2.438,2.438,0,0,0,.286.354c.039,0,2.034-1.15,2.092-1.208a4.33,4.33,0,0,0-.752-1.112,12.589,12.589,0,0,0-2.767-2.5C371.223-470.632,371.218-470.632,371.15-470.521Z" transform="translate(-352.032 472.627)" fill="url(#linear-gradient)"/>
    <path id="Path_5322" data-name="Path 5322" d="M84.408-435.769a8.752,8.752,0,0,0-7.795,6.911,8.739,8.739,0,0,0,2.354,7.906,8.693,8.693,0,0,0,8.63,2.228,8.773,8.773,0,0,0,5.771-5.48,8.679,8.679,0,0,0-2.034-9.018,8.589,8.589,0,0,0-5.523-2.553A5.9,5.9,0,0,0,84.408-435.769Zm1.344,3.868a1.225,1.225,0,0,1,.548,1.524,1.278,1.278,0,0,1-.306.422l-.214.2v.912l.223.107a2.159,2.159,0,0,1,.8.8l.107.223h.912l.2-.214a1.2,1.2,0,0,1,1.961.267A1.218,1.218,0,0,1,89.466-426a1.178,1.178,0,0,1-1.446-.243l-.2-.214h-.912l-.107.223a2.159,2.159,0,0,1-.8.8l-.223.107v.912l.214.2a1.2,1.2,0,0,1-.267,1.961,1.233,1.233,0,0,1-1.81-1.044,1.169,1.169,0,0,1,.388-.917l.214-.2v-.917l-.223-.112a2.066,2.066,0,0,1-.8-.786l-.107-.223h-.912l-.2.214a1.214,1.214,0,0,1-2.1-.845,1.229,1.229,0,0,1,1.679-1.15,1.279,1.279,0,0,1,.422.306l.2.214h.912l.107-.223a2.086,2.086,0,0,1,.791-.786l.228-.112v-.917l-.214-.2a1.229,1.229,0,0,1,.568-2.087A1.4,1.4,0,0,1,85.753-431.9Z" transform="translate(-72.716 439.52)" fill="url(#linear-gradient)"/>
    <path id="Path_5323" data-name="Path 5323" d="M243.345-268.913a.711.711,0,0,0-.345.544.736.736,0,0,0,.087.286.711.711,0,0,0,.544.345.7.7,0,0,0,.631-.631.736.736,0,0,0-.087-.286.711.711,0,0,0-.544-.345A.736.736,0,0,0,243.345-268.913Z" transform="translate(-231.196 280.804)" fill="url(#linear-gradient)"/>
    <path id="Path_5324" data-name="Path 5324" d="M.926-371.874a12.917,12.917,0,0,0-1.1,4.174l-.029.379H2.285l.019-.112a4.164,4.164,0,0,0,.053-.442,10.043,10.043,0,0,1,.781-2.839,2.3,2.3,0,0,0,.16-.413c-.01-.01-.447-.262-.966-.563s-.995-.578-1.058-.616C1.164-372.374,1.159-372.369.926-371.874Z" transform="translate(0.2 379.125)" fill="url(#linear-gradient)"/>
    <path id="Path_5325" data-name="Path 5325" d="M441.46-372.3c-.558.33-1.039.612-1.068.621a.965.965,0,0,0,.131.4,9.656,9.656,0,0,1,.767,2.718c.029.267.068.529.078.587l.019.112h2.485l-.029-.379a13.075,13.075,0,0,0-1.1-4.174,4.479,4.479,0,0,0-.252-.49C442.484-372.9,442.023-372.625,441.46-372.3Z" transform="translate(-419.003 379.663)" fill="url(#linear-gradient)"/>
    <path id="Path_5326" data-name="Path 5326" d="M-.171-242.626a12.912,12.912,0,0,0,1.1,4.179c.233.5.238.5.349.432.063-.039.539-.315,1.058-.616s.956-.553.966-.563a2.3,2.3,0,0,0-.16-.413,10.043,10.043,0,0,1-.781-2.839,4.494,4.494,0,0,0-.053-.447L2.285-243H-.2Z" transform="translate(0.2 256.066)" fill="url(#linear-gradient)"/>
    <path id="Path_5327" data-name="Path 5327" d="M441.077-242.893c-.01.063-.049.325-.078.592a9.578,9.578,0,0,1-.767,2.713,1.948,1.948,0,0,0-.15.393c.01.01.5.291,1.077.626l1.063.612.233-.5a12.791,12.791,0,0,0,1.092-4.174l.034-.374H441.1Z" transform="translate(-418.712 256.066)" fill="url(#linear-gradient)"/>
    <path id="Path_5328" data-name="Path 5328" d="M42.625-141.318c-.548.32-1.01.6-1.034.621a7.831,7.831,0,0,0,1.495,1.937,8.705,8.705,0,0,0,2.17,1.718c.063-.063,1.2-2.053,1.2-2.1a.689.689,0,0,0-.2-.17,10.545,10.545,0,0,1-2.4-2.388c-.078-.116-.16-.2-.189-.2S43.174-141.633,42.625-141.318Z" transform="translate(-39.558 159.873)" fill="url(#linear-gradient)"/>
    <path id="Path_5329" data-name="Path 5329" d="M372.49-141.646a10.357,10.357,0,0,1-2.136,2.136,2.434,2.434,0,0,0-.354.286c0,.034,1.145,2.029,1.2,2.087a8.822,8.822,0,0,0,2.179-1.723,8.034,8.034,0,0,0,1.485-1.932c-.058-.058-2.053-1.209-2.092-1.209A2.441,2.441,0,0,0,372.49-141.646Z" transform="translate(-352.032 159.968)" fill="url(#linear-gradient)"/>
    <path id="Path_5330" data-name="Path 5330" d="M140.134-71.646c-.112.189-.388.67-.616,1.068l-.417.713.277.141a12.934,12.934,0,0,0,4.392,1.2l.374.029v-2.485L144.036-71c-.063-.01-.33-.049-.6-.078a10.522,10.522,0,0,1-2.834-.82,1.07,1.07,0,0,0-.233-.1A1.479,1.479,0,0,0,140.134-71.646Z" transform="translate(-132.339 93.365)" fill="url(#linear-gradient)"/>
    <path id="Path_5331" data-name="Path 5331" d="M272.495-71.789a9.869,9.869,0,0,1-2.8.806c-.267.029-.529.068-.587.078l-.112.019V-68.4l.379-.029a12.855,12.855,0,0,0,4.169-1.1l.5-.233-.616-1.073a9.021,9.021,0,0,0-.665-1.068A1.231,1.231,0,0,0,272.495-71.789Z" transform="translate(-255.934 93.271)" fill="url(#linear-gradient)"/>
  </g>
</svg>
