<svg id="slots" xmlns="http://www.w3.org/2000/svg" xmlns:xlink="http://www.w3.org/1999/xlink" width="38" height="38" viewBox="0 0 38 38">
  <defs>
    <linearGradient id="linear-gradient" y1="-0.12" x2="0.833" y2="0.903" gradientUnits="objectBoundingBox">
      <stop offset="0" stop-color="#ffca94"/>
      <stop offset="0.328" stop-color="#ff9529"/>
      <stop offset="0.686" stop-color="#ff8508"/>
      <stop offset="1" stop-color="#f40"/>
    </linearGradient>
  </defs>
  <g id="Rectangle_726" data-name="Rectangle 726" fill="none" stroke="#fff" stroke-width="1" opacity="0">
    <rect width="38" height="38" rx="7" stroke="none"/>
    <rect x="0.5" y="0.5" width="37" height="37" rx="6.5" fill="none"/>
  </g>
  <g id="slot-machine" transform="translate(7 11)">
    <path id="Path_5316" data-name="Path 5316" d="M429.439-394.484a1.727,1.727,0,0,0-1.221.951,1.837,1.837,0,0,0-.005,1.34,1.762,1.762,0,0,0,.707.779l.239.125v5.637h-1.081l-.021-1.055c-.016-1.023-.021-1.055-.161-1.32a1.826,1.826,0,0,0-.722-.748l-.2-.1v1.881c-.005,4.11.005,5.621.026,5.642.057.057.535-.3.707-.53.312-.41.359-.639.359-1.725v-.956H429c.852,0,.935-.01,1.06-.1a.7.7,0,0,0,.192-.3c.031-.12.052-1.314.052-3.258v-3.065l.239-.125a1.762,1.762,0,0,0,.707-.779,1.85,1.85,0,0,0-.005-1.346A1.723,1.723,0,0,0,429.439-394.484Z" transform="translate(-404.798 394.51)" fill="url(#linear-gradient)"/>
    <path id="Subtraction_1" data-name="Subtraction 1" d="M10.3,9.966c-4.15,0-8.709-.017-8.913-.054A1.732,1.732,0,0,1,.139,8.956L.019,8.691,0,5.133C-.007,2.564,0,1.486.045,1.288A1.678,1.678,0,0,1,1.069.093C1.251.018,1.449,0,5.517,0c1.273,0,2.925,0,5.074,0l9.274.011L20.1.14a1.873,1.873,0,0,1,.738.706A.892.892,0,0,0,21,1.09c.042.026.058,1.1.058,3.844V8.743l-.2.307a1.657,1.657,0,0,1-1.206.857C19.444,9.948,14.659,9.966,10.3,9.966ZM13.833,1.1a.515.515,0,0,0-.482.322c-.043.12-.056,1.135-.047,3.622L13.32,8.52l.171.151a.557.557,0,0,0,.367.156.517.517,0,0,0,.365-.167l.162-.162V1.443l-.14-.156A.548.548,0,0,0,13.833,1.1Zm-6.65,0a.514.514,0,0,0-.482.322c-.043.12-.057,1.169-.047,3.622L6.669,8.52l.172.151a.557.557,0,0,0,.367.156.518.518,0,0,0,.365-.167L7.734,8.5V1.443l-.14-.156A.549.549,0,0,0,7.183,1.1ZM17.8,3.611a1.8,1.8,0,1,0,1.8,1.8A1.806,1.806,0,0,0,17.8,3.611Zm-7.217,0a1.8,1.8,0,1,0,1.8,1.8A1.806,1.806,0,0,0,10.584,3.611Zm-7.216,0a1.8,1.8,0,1,0,1.8,1.8A1.806,1.806,0,0,0,3.368,3.611Z" transform="translate(0 4.454)" fill="url(#linear-gradient)"/>
  </g>
</svg>
