<svg xmlns="http://www.w3.org/2000/svg" xmlns:xlink="http://www.w3.org/1999/xlink" width="20" height="17" viewBox="0 0 20 17">
  <defs>
    <linearGradient id="linear-gradient" y1="-0.12" x2="0.833" y2="0.903" gradientUnits="objectBoundingBox">
      <stop offset="0" stop-color="#ffca94"/>
      <stop offset="0.328" stop-color="#ff9529"/>
      <stop offset="0.686" stop-color="#ff8508"/>
      <stop offset="1" stop-color="#f40"/>
    </linearGradient>
  </defs>
  <path id="staking" d="M602,17h-3V9h3a2,2,0,0,1,2,2v4A2,2,0,0,1,602,17Zm-5,0H586a2,2,0,0,1-2-2V11a2,2,0,0,1,2-2h11v8Zm5-9h-3V0h3a2,2,0,0,1,2,2V6A2,2,0,0,1,602,8Zm-5,0H586a2,2,0,0,1-2-2V2a2,2,0,0,1,2-2h11V8Z" transform="translate(-584)" fill="url(#linear-gradient)"/>
</svg>
