<svg width="38" height="35" viewBox="0 0 38 35" fill="none" xmlns="http://www.w3.org/2000/svg">
<path d="M33.5473 18C33.5473 26.8366 26.1115 34 16.9389 34C7.76638 34 0.330566 26.8366 0.330566 18C0.330566 9.16344 7.76638 2 16.9389 2C26.1115 2 33.5473 9.16344 33.5473 18Z" fill="white"/>
<path d="M34 18C34 27.3888 26.3888 35 17 35C7.61116 35 0 27.3888 0 18C0 8.61116 7.61116 1 17 1C26.3888 1 34 8.61116 34 18Z" fill="#26A17B"/>
<path d="M25 12.4595H18.8919V28H15.1081V12.4595H9V9H25V12.4595Z" fill="white"/>
<path d="M37.6994 7C37.6994 10.866 34.4462 14 30.4332 14C26.4202 14 23.1671 10.866 23.1671 7C23.1671 3.13401 26.4202 0 30.4332 0C34.4462 0 37.6994 3.13401 37.6994 7Z" fill="#F3BA2F"/>
<path d="M32.0333 7.64073L32.9734 8.54685L30.4293 11L27.8854 8.54719L28.8255 7.64073L30.4296 9.19542L32.0333 7.64073ZM33.6378 6.09404L34.5855 7.00017L33.6461 7.90629L32.706 7.00017L33.6378 6.09404ZM30.4296 6.09404L31.3694 6.99216L30.4293 7.89862L29.4895 7.00017L30.4296 6.09404ZM27.2211 6.09404L28.1532 7.00017L27.2218 7.89829L26.2813 7.00017L27.2211 6.09404ZM30.4299 3L32.9738 5.44547L32.0337 6.35127L30.4296 4.80458L28.8259 6.35927L27.8858 5.45315L30.4299 3Z" fill="white"/>
</svg>
