<svg width="38" height="35" viewBox="0 0 38 35" fill="none" xmlns="http://www.w3.org/2000/svg">
<ellipse cx="16.9389" cy="19" rx="16.6084" ry="16" fill="white"/>
<path d="M16.8499 10L19.1424 12.255L13.3697 17.7996L11.0771 15.5977L16.8499 10Z" fill="#F0B90B" stroke="#F0B90B"/>
<path d="M20.3301 13.3418L22.6226 15.5968L13.3697 24.4841L11.0771 22.2821L20.3301 13.3418Z" fill="#F0B90B" stroke="#F0B90B"/>
<path d="M9.88919 16.6855L12.1817 18.9405L9.88919 21.1424L7.59668 18.9405L9.88919 16.6855Z" fill="#F0B90B" stroke="#F0B90B"/>
<path d="M23.81 16.6855L26.1025 18.9405L16.8496 27.8278L14.5571 25.6259L23.81 16.6855Z" fill="#F0B90B" stroke="#F0B90B"/>
<ellipse cx="30.4332" cy="7" rx="7.26616" ry="7" fill="#F3BA2F"/>
<path d="M32.0333 7.64073L32.9734 8.54685L30.4292 11L27.8853 8.54719L28.8254 7.64073L30.4295 9.19542L32.0333 7.64073ZM33.6377 6.09404L34.5854 7.00017L33.646 7.90629L32.7059 7.00017L33.6377 6.09404ZM30.4295 6.09404L31.3693 6.99216L30.4292 7.89862L29.4894 7.00017L30.4292 6.09437L30.4295 6.09404ZM27.221 6.09404L28.1532 7.00017L27.2217 7.89829L26.2812 7.00017L27.221 6.09404ZM30.4299 3L32.9737 5.44547L32.0336 6.35127L30.4295 4.80458L28.8258 6.35927L27.8857 5.45315L30.4295 3.00033L30.4299 3Z" fill="white"/>
</svg>
