<svg width="38" height="38" viewBox="0 0 38 38" fill="none" xmlns="http://www.w3.org/2000/svg">
<path d="M14.3614 0.111352C12.9957 0.319164 11.6746 0.846117 10.4946 1.63284C9.74495 2.13752 8.59456 3.28792 8.08987 4.03752C5.92268 7.27346 5.92268 11.2813 8.08987 14.5172C8.59456 15.2668 9.74495 16.4172 10.4946 16.9219C12.8473 18.4953 15.5934 18.9407 18.3321 18.1836C19.1039 17.9684 20.5586 17.241 21.2637 16.7141C24.7891 14.0793 25.9989 9.29963 24.1285 5.37346C23.4457 3.94846 22.4735 2.74612 21.2637 1.84065C20.5586 1.3137 19.1039 0.586352 18.3321 0.371117C17.0332 0.0148672 15.5785 -0.0816172 14.3614 0.111352ZM16.2539 3.48831C16.5805 3.65901 16.8477 4.08206 16.8477 4.44573C16.8477 4.63127 16.9071 4.69065 17.241 4.88362C18.3098 5.49221 18.9481 6.92463 18.4582 7.65198C18.2282 8.00081 17.8571 8.17893 17.4489 8.14182C17.0035 8.09729 16.7735 7.90432 16.5063 7.3551C16.202 6.72424 15.8754 6.55354 15.4004 6.76878C15.1852 6.86526 14.9922 7.17698 14.9922 7.4219C14.9922 7.68167 15.1926 7.98596 15.4153 8.07503C15.5266 8.11956 15.8235 8.17151 16.0684 8.19378C17.0555 8.29768 17.9239 8.92112 18.3914 9.85628C18.6512 10.3907 18.666 10.4574 18.666 11.1254C18.666 11.7711 18.6438 11.8824 18.436 12.3278C18.1465 12.9438 17.7457 13.3817 17.241 13.6711C16.9071 13.8641 16.8477 13.9235 16.8477 14.109C16.8477 14.6657 16.291 15.2149 15.727 15.2149C15.1852 15.2149 14.6211 14.6508 14.6211 14.109C14.6211 13.9235 14.5617 13.8641 14.2278 13.6711C13.159 13.0625 12.5207 11.6301 13.0106 10.9028C13.2407 10.5539 13.6117 10.3758 14.0199 10.4129C14.4653 10.4574 14.6953 10.6504 14.9625 11.1996C15.2668 11.8379 15.6231 12.016 16.0981 11.7711C16.4469 11.5856 16.5657 11.1551 16.3653 10.7692C16.2391 10.5168 16.0016 10.4203 15.4004 10.361C14.4133 10.2571 13.5449 9.63362 13.0774 8.69846C12.8176 8.16409 12.8028 8.09729 12.8028 7.42932C12.8028 6.78362 12.825 6.67229 13.0328 6.22698C13.3223 5.61096 13.7231 5.17307 14.2278 4.88362C14.5692 4.69065 14.6211 4.63127 14.6211 4.43088C14.6285 4.08206 14.8586 3.71838 15.1852 3.51799C15.5414 3.30276 15.868 3.29534 16.2539 3.48831Z" fill="#F001F4"/>
<path d="M24.5887 1.94453C25.2938 2.7832 26.0805 4.12656 26.4961 5.21016C27.2309 7.13242 27.4313 9.58164 27.0008 11.5484C26.9191 11.927 26.9266 11.927 27.2754 12.5133C27.4684 12.8324 27.7578 13.3594 27.9211 13.6934L28.2106 14.2871L27.5426 14.3242C27.0231 14.3539 26.8301 14.3984 26.6668 14.5172C26.1695 14.8883 25.9988 15.4449 26.2363 15.9051C26.2957 16.0238 27.4684 17.4637 28.8414 19.1113C31.402 22.184 31.5578 22.3398 32.0625 22.3398C32.5672 22.3398 32.7231 22.184 35.2836 19.1113C36.6566 17.4637 37.8293 16.0238 37.8887 15.9051C38.1484 15.4078 37.9035 14.7324 37.3691 14.4727C37.1168 14.3465 36.909 14.3242 36.1594 14.3242C35.6621 14.3242 35.2539 14.3094 35.2539 14.2945C35.2539 14.1684 34.7418 12.6098 34.5043 12.0012C33.5691 9.66328 32.2703 7.65938 30.4668 5.80391C28.8859 4.16367 27.409 3.07266 25.4422 2.07813C24.8856 1.78867 24.3883 1.55859 24.3438 1.55859C24.2992 1.55859 24.4031 1.73672 24.5887 1.94453Z" fill="#F001F4"/>
<path d="M0.578906 22.5699C0.408203 22.659 0.2375 22.8297 0.148437 23.0078C0 23.2898 0 23.4309 0 30.207C0 36.9832 0 37.1242 0.148437 37.4063C0.244922 37.5992 0.400781 37.7551 0.59375 37.8516C0.860937 37.9852 1.02422 38 2.48633 38C3.94844 38 4.11172 37.9852 4.37891 37.8516C4.57187 37.7551 4.72773 37.5992 4.82422 37.4063C4.97266 37.1242 4.97266 36.9832 4.97266 30.207C4.97266 23.4309 4.97266 23.2898 4.82422 23.0078C4.72773 22.8148 4.57187 22.659 4.37891 22.5625C4.11172 22.4289 3.94844 22.4141 2.47148 22.4141C1.00937 22.4215 0.823828 22.4363 0.578906 22.5699Z" fill="#F001F4"/>
<path d="M12.0234 23.2008C10.4352 23.4457 9.69297 23.7203 8.03789 24.7L7.19922 25.1973V30.8527V36.5156L17.0184 36.5008C28.025 36.4785 27.216 36.5156 28.3738 35.9293C29.0344 35.5879 36.6418 30.6152 37.1242 30.207C37.3469 30.0141 37.5547 29.732 37.718 29.4129C37.9406 28.9602 37.9629 28.8488 37.9629 28.2402C37.9629 27.6316 37.9406 27.5203 37.718 27.075C37.1836 25.9914 35.9961 25.3828 34.8457 25.6055C34.3113 25.7094 34.0516 25.8504 31.6617 27.3719L29.8137 28.5445L29.7172 29.0195C29.45 30.3332 28.4035 31.6691 27.1641 32.2777C26.1398 32.775 25.9172 32.8047 22.3844 32.8047C19.423 32.8047 19.2523 32.7973 18.9629 32.6562C18.1984 32.2852 18.1242 31.2238 18.8441 30.7859C19.1113 30.6152 19.141 30.6152 22.377 30.5781L25.6426 30.541L26.0582 30.348C26.6445 30.0734 27.0453 29.6801 27.3273 29.1086C27.5426 28.6707 27.5723 28.5445 27.5723 27.9805C27.5723 27.4535 27.5426 27.2828 27.3719 26.9266C27.1195 26.3848 26.6445 25.9098 26.0805 25.6352L25.6426 25.4199L22.1691 25.3977L18.6957 25.3754L18.0648 24.9078C16.8699 24.0246 15.6379 23.4977 14.25 23.2676C13.6117 23.1637 12.491 23.134 12.0234 23.2008Z" fill="#F001F4"/>
</svg>
