<svg width="48" height="48" viewBox="0 0 48 48" fill="none" xmlns="http://www.w3.org/2000/svg">
<path d="M24.0013 0.666626C18.0195 0.683688 12.2728 2.99743 7.94797 7.12996V2.99996C7.94797 2.38112 7.70214 1.78763 7.26455 1.35004C6.82697 0.912458 6.23347 0.666626 5.61463 0.666626C4.9958 0.666626 4.4023 0.912458 3.96472 1.35004C3.52713 1.78763 3.2813 2.38112 3.2813 2.99996V13.5C3.2813 14.1188 3.52713 14.7123 3.96472 15.1499C4.4023 15.5875 4.9958 15.8333 5.61463 15.8333H16.1146C16.7335 15.8333 17.327 15.5875 17.7645 15.1499C18.2021 14.7123 18.448 14.1188 18.448 13.5C18.448 12.8811 18.2021 12.2876 17.7645 11.85C17.327 11.4125 16.7335 11.1666 16.1146 11.1666H10.5146C13.5148 8.03146 17.5135 6.03949 21.8232 5.53319C26.1329 5.02689 30.4844 6.0379 34.1295 8.3924C37.7746 10.7469 40.4854 14.2978 41.7961 18.4345C43.1067 22.5712 42.9351 27.0353 41.3109 31.0592C39.6867 35.0832 36.7113 38.4155 32.8963 40.4833C29.0813 42.5512 24.6651 43.2253 20.4069 42.3897C16.1488 41.5542 12.3147 39.2612 9.56401 35.9051C6.81331 32.5489 5.3178 28.3393 5.33464 24C5.33464 23.3811 5.0888 22.7876 4.65122 22.35C4.21363 21.9125 3.62014 21.6666 3.0013 21.6666C2.38246 21.6666 1.78897 21.9125 1.35139 22.35C0.913801 22.7876 0.667969 23.3811 0.667969 24C0.667969 28.6149 2.03644 33.1261 4.60034 36.9633C7.16424 40.8004 10.8084 43.7911 15.072 45.5571C19.3356 47.3232 24.0272 47.7853 28.5534 46.8849C33.0796 45.9846 37.2372 43.7623 40.5005 40.4991C43.7637 37.2359 45.986 33.0783 46.8863 28.5521C47.7866 24.0258 47.3245 19.3343 45.5585 15.0707C43.7924 10.8071 40.8018 7.1629 36.9646 4.599C33.1275 2.0351 28.6162 0.666626 24.0013 0.666626ZM24.0013 14.6666C23.3825 14.6666 22.789 14.9125 22.3514 15.35C21.9138 15.7876 21.668 16.3811 21.668 17V24C21.668 24.6188 21.9138 25.2123 22.3514 25.6499C22.789 26.0875 23.3825 26.3333 24.0013 26.3333H28.668C29.2868 26.3333 29.8803 26.0875 30.3179 25.6499C30.7555 25.2123 31.0013 24.6188 31.0013 24C31.0013 23.3811 30.7555 22.7876 30.3179 22.35C29.8803 21.9125 29.2868 21.6666 28.668 21.6666H26.3346V17C26.3346 16.3811 26.0888 15.7876 25.6512 15.35C25.2136 14.9125 24.6201 14.6666 24.0013 14.6666Z" fill="white"/>
</svg>
