<svg xmlns="http://www.w3.org/2000/svg" viewBox="0 0 32 24"><g data-name="Layer 2"><g data-name="Layer 1"><path fill="#3498db" d="M0 0h32v24H0z"/><circle cx="16" cy="12" r="9.31" fill="#53dccd"/><path d="M13.1 6.58a3.91 3.91 0 0 1 3-1.17 4 4 0 0 1 2.83 1A3.32 3.32 0 0 1 20 9a2.78 2.78 0 0 1-.38 1.52A12 12 0 0 1 18 12.19a5 5 0 0 0-1.13 1.4 4.09 4.09 0 0 0-.26 1.68h-1.55a5.78 5.78 0 0 1 .3-2 5.53 5.53 0 0 1 1.34-1.77l.72-.7a2.78 2.78 0 0 0 .53-.63 2.14 2.14 0 0 0 .37-1.19 2.32 2.32 0 0 0-.53-1.51A2.17 2.17 0 0 0 16 6.8a2.16 2.16 0 0 0-2 1.09 4.32 4.32 0 0 0-.37 1.76H12a4.29 4.29 0 0 1 1.1-3.07zM15 16.74h1.76v1.85H15z" fill="#fff"/></g></g></svg>