<svg width="54" height="54" viewBox="0 0 54 54" fill="none" xmlns="http://www.w3.org/2000/svg">
<path d="M43.256 9.24023H10.2041V39.5838H43.256V9.24023Z" fill="white"/>
<path fill-rule="evenodd" clip-rule="evenodd" d="M53.4956 27C53.4956 41.9118 41.5203 54 26.7478 54C11.9754 54 0 41.9118 0 27C0 12.0883 11.9754 0 26.7478 0C41.5203 0 53.4956 12.0883 53.4956 27ZM19.1682 37.7446H13.9772C12.8864 37.7446 12.3476 37.7446 12.0191 37.5325C11.6643 37.3003 11.4474 36.9156 11.4212 36.491C11.4014 36.0998 11.6709 35.6221 12.2097 34.667L25.0269 11.8618C25.5723 10.8934 25.8482 10.4092 26.1965 10.2302C26.571 10.0378 27.0179 10.0378 27.3924 10.2302C27.7407 10.4092 28.0166 10.8934 28.562 11.8618L31.197 16.5048L31.2104 16.5285C31.7994 17.5674 32.0982 18.0943 32.2286 18.6472C32.3731 19.2508 32.3731 19.8876 32.2286 20.4912C32.0972 21.0483 31.8015 21.579 31.2035 22.6336L24.4709 34.6471L24.4535 34.6779C23.8606 35.7253 23.5601 36.2562 23.1436 36.6567C22.6902 37.0946 22.1448 37.4128 21.5469 37.5922C21.0015 37.7446 20.3904 37.7446 19.1682 37.7446ZM32.2772 37.7446H39.7153C40.8126 37.7446 41.3647 37.7446 41.6934 37.526C42.0481 37.2938 42.2715 36.9023 42.2914 36.478C42.3103 36.0995 42.0467 35.6404 41.5303 34.7407C41.5125 34.7101 41.4947 34.6789 41.4765 34.6472L37.7507 28.2134L37.7083 28.1409C37.1848 27.2472 36.9205 26.7959 36.5811 26.6215C36.2067 26.4291 35.7662 26.4291 35.3918 26.6215C35.0501 26.8006 34.7741 27.2715 34.2288 28.22L30.5162 34.6539L30.5035 34.676C29.96 35.623 29.6884 36.0962 29.708 36.4845C29.7343 36.9091 29.9511 37.3003 30.3059 37.5325C30.6279 37.7446 31.1799 37.7446 32.2772 37.7446Z" fill="#E84142"/>
</svg>
