<svg width="54" height="54" viewBox="0 0 54 54" fill="none" xmlns="http://www.w3.org/2000/svg">
<path d="M27 54C41.9117 54 54 41.9117 54 27C54 12.0883 41.9117 0 27 0C12.0883 0 0 12.0883 0 27C0 41.9117 12.0883 54 27 54Z" fill="#13B5EC"/>
<path fill-rule="evenodd" clip-rule="evenodd" d="M29.025 21.7687L35.1 18.225V25.3125L29.025 21.7687ZM35.1 36.9562L27 41.6813L18.9 36.9562V28.6875L27 33.4125L35.1 28.6875V36.9562ZM18.9 18.225L24.975 21.7687L18.9 25.3125V18.225ZM28.0125 23.4562L34.0875 27L28.0125 30.5438V23.4562ZM25.9875 30.5438L19.9125 27L25.9875 23.4562V30.5438ZM34.0875 16.5375L27 20.5875L19.9125 16.5375L27 12.3188L34.0875 16.5375ZM16.875 15.8625V37.9688L27 43.7062L37.125 37.9688V15.8625L27 10.125L16.875 15.8625Z" fill="white"/>
</svg>
