<svg width="54" height="54" viewBox="0 0 54 54" fill="none" xmlns="http://www.w3.org/2000/svg">
<circle cx="27" cy="27" r="27" fill="white"/>
<path d="M25.9405 25.9402C26.9663 26.1914 28.0374 26.1914 29.0632 25.9402C29.3498 24.7746 29.95 23.7097 30.7988 22.8609C31.6476 22.0122 32.7125 21.412 33.8781 21.1253C34.1144 20.1591 34.128 19.1518 33.9178 18.1796C33.7077 17.2073 33.2794 16.2956 32.6652 15.5131C32.051 14.7307 31.267 14.0981 30.3725 13.663C29.4779 13.228 28.4962 13.002 27.5015 13.002C26.5068 13.002 25.5251 13.228 24.6305 13.663C23.736 14.0981 22.952 14.7307 22.3378 15.5131C21.7236 16.2956 21.2953 17.2073 21.0852 18.1796C20.875 19.1518 20.8886 20.1591 21.1248 21.1253C22.2907 21.4116 23.3559 22.0117 24.2048 22.8605C25.0538 23.7093 25.6541 24.7744 25.9405 25.9402Z" fill="#7ABDF7"/>
<path d="M29.0625 29.0602C28.0367 28.809 26.9655 28.809 25.9398 29.0602C25.6532 30.2258 25.0529 31.2907 24.2042 32.1394C23.3554 32.9882 22.2905 33.5884 21.1248 33.875C20.8886 34.8412 20.875 35.8485 21.0852 36.8208C21.2953 37.793 21.7236 38.7048 22.3378 39.4872C22.952 40.2697 23.736 40.9023 24.6305 41.3373C25.5251 41.7724 26.5068 41.9984 27.5015 41.9984C28.4962 41.9984 29.4779 41.7724 30.3725 41.3373C31.267 40.9023 32.051 40.2697 32.6652 39.4872C33.2794 38.7048 33.7077 37.793 33.9178 36.8208C34.128 35.8485 34.1144 34.8412 33.8781 33.875C32.7123 33.5887 31.6471 32.9886 30.7981 32.1398C29.9492 31.291 29.3489 30.226 29.0625 29.0602Z" fill="#0D74F5"/>
<path d="M35.4387 20.9354C34.9128 20.9353 34.3889 20.9985 33.8781 21.1236C33.5918 22.2891 32.9917 23.354 32.143 24.2027C31.2943 25.0514 30.2294 25.6514 29.0639 25.9377C28.8127 26.9634 28.8127 28.0346 29.0639 29.0603C30.2295 29.3468 31.2943 29.947 32.143 30.7958C32.9917 31.6446 33.5918 32.7095 33.8781 33.8751C34.7797 34.0954 35.7178 34.1219 36.6305 33.953C37.5431 33.784 38.4096 33.4235 39.1727 32.8952C39.9357 32.3668 40.5781 31.6827 41.0574 30.8878C41.5366 30.093 41.8419 29.2056 41.953 28.2842C42.0641 27.3627 41.9786 26.4282 41.702 25.5422C41.4254 24.6563 40.9641 23.839 40.3485 23.1444C39.7329 22.4498 38.977 21.8937 38.1307 21.5126C37.2844 21.1316 36.3668 20.9344 35.4387 20.934V20.9354Z" fill="#4494F7"/>
<path d="M25.9395 29.0604C26.1907 28.0347 26.1907 26.9636 25.9395 25.9379C24.7739 25.6515 23.7089 25.0515 22.8601 24.2028C22.0113 23.3542 21.4111 22.2893 21.1246 21.1237C20.1583 20.8875 19.151 20.8739 18.1787 21.0841C17.2065 21.2942 16.2947 21.7225 15.5122 22.3367C14.7298 22.9509 14.0971 23.7348 13.6621 24.6293C13.227 25.5239 13.001 26.5055 13.001 27.5002C13.001 28.4949 13.227 29.4766 13.6621 30.3711C14.0971 31.2657 14.7298 32.0496 15.5122 32.6638C16.2947 33.278 17.2065 33.7063 18.1787 33.9164C19.151 34.1265 20.1583 34.113 21.1246 33.8767C21.4108 32.7108 22.0109 31.6455 22.8597 30.7965C23.7085 29.9474 24.7737 29.347 25.9395 29.0604Z" fill="#005CF4"/>
<path d="M29.062 25.9402C30.2276 25.6536 31.2926 25.0534 32.1413 24.2046C32.9901 23.3559 33.5903 22.291 33.877 21.1254C32.7114 21.412 31.6464 22.0122 30.7977 22.861C29.9489 23.7097 29.3486 24.7746 29.062 25.9402Z" fill="#186EF9"/>
<path d="M29.062 29.0612C29.3484 30.2269 29.9486 31.292 30.7974 32.1408C31.6462 32.9895 32.7113 33.5897 33.877 33.8761C33.5903 32.7105 32.9901 31.6456 32.1413 30.7969C31.2926 29.9481 30.2276 29.3479 29.062 29.0612Z" fill="#0246F2"/>
<path d="M25.9405 25.9402C25.6538 24.7746 25.0536 23.7097 24.2048 22.861C23.356 22.0122 22.2911 21.412 21.1255 21.1254C21.4121 22.291 22.0124 23.3559 22.8611 24.2046C23.7099 25.0534 24.7748 25.6536 25.9405 25.9402Z" fill="#0046F8"/>
<path d="M25.9405 29.0612C24.7748 29.3479 23.7099 29.9481 22.8611 30.7969C22.0124 31.6456 21.4121 32.7105 21.1255 33.8761C22.2911 33.5895 23.356 32.9892 24.2048 32.1405C25.0536 31.2917 25.6538 30.2268 25.9405 29.0612Z" fill="#0729F1"/>
<path d="M25.9405 25.9402C26.9663 26.1914 28.0374 26.1914 29.0632 25.9402C29.3498 24.7746 29.95 23.7097 30.7988 22.8609C31.6476 22.0122 32.7125 21.412 33.8781 21.1253C34.1144 20.1591 34.128 19.1518 33.9178 18.1796C33.7077 17.2073 33.2794 16.2956 32.6652 15.5131C32.051 14.7307 31.267 14.0981 30.3725 13.663C29.4779 13.228 28.4962 13.002 27.5015 13.002C26.5068 13.002 25.5251 13.228 24.6305 13.663C23.736 14.0981 22.952 14.7307 22.3378 15.5131C21.7236 16.2956 21.2953 17.2073 21.0852 18.1796C20.875 19.1518 20.8886 20.1591 21.1248 21.1253C22.2907 21.4116 23.3559 22.0117 24.2048 22.8605C25.0538 23.7093 25.6541 24.7744 25.9405 25.9402Z" fill="#7ABDF7"/>
<path d="M29.0625 29.0602C28.0367 28.809 26.9655 28.809 25.9398 29.0602C25.6532 30.2258 25.0529 31.2907 24.2042 32.1394C23.3554 32.9882 22.2905 33.5884 21.1248 33.875C20.8886 34.8412 20.875 35.8485 21.0852 36.8208C21.2953 37.793 21.7236 38.7048 22.3378 39.4872C22.952 40.2697 23.736 40.9023 24.6305 41.3373C25.5251 41.7724 26.5068 41.9984 27.5015 41.9984C28.4962 41.9984 29.4779 41.7724 30.3725 41.3373C31.267 40.9023 32.051 40.2697 32.6652 39.4872C33.2794 38.7048 33.7077 37.793 33.9178 36.8208C34.128 35.8485 34.1144 34.8412 33.8781 33.875C32.7123 33.5887 31.6471 32.9886 30.7981 32.1398C29.9492 31.291 29.3489 30.226 29.0625 29.0602Z" fill="#0D74F5"/>
<path d="M35.4387 20.9354C34.9128 20.9353 34.3889 20.9985 33.8781 21.1236C33.5918 22.2891 32.9917 23.354 32.143 24.2027C31.2943 25.0514 30.2294 25.6514 29.0639 25.9377C28.8127 26.9634 28.8127 28.0346 29.0639 29.0603C30.2295 29.3468 31.2943 29.947 32.143 30.7958C32.9917 31.6446 33.5918 32.7095 33.8781 33.8751C34.7797 34.0954 35.7178 34.1219 36.6305 33.953C37.5431 33.784 38.4096 33.4235 39.1727 32.8952C39.9357 32.3668 40.5781 31.6827 41.0574 30.8878C41.5366 30.093 41.8419 29.2056 41.953 28.2842C42.0641 27.3627 41.9786 26.4282 41.702 25.5422C41.4254 24.6563 40.9641 23.839 40.3485 23.1444C39.7329 22.4498 38.977 21.8937 38.1307 21.5126C37.2844 21.1316 36.3668 20.9344 35.4387 20.934V20.9354Z" fill="#4494F7"/>
<path d="M25.9395 29.0604C26.1907 28.0347 26.1907 26.9636 25.9395 25.9379C24.7739 25.6515 23.7089 25.0515 22.8601 24.2028C22.0113 23.3542 21.4111 22.2893 21.1246 21.1237C20.1583 20.8875 19.151 20.8739 18.1787 21.0841C17.2065 21.2942 16.2947 21.7225 15.5122 22.3367C14.7298 22.9509 14.0971 23.7348 13.6621 24.6293C13.227 25.5239 13.001 26.5055 13.001 27.5002C13.001 28.4949 13.227 29.4766 13.6621 30.3711C14.0971 31.2657 14.7298 32.0496 15.5122 32.6638C16.2947 33.278 17.2065 33.7063 18.1787 33.9164C19.151 34.1265 20.1583 34.113 21.1246 33.8767C21.4108 32.7108 22.0109 31.6455 22.8597 30.7965C23.7085 29.9474 24.7737 29.347 25.9395 29.0604Z" fill="#005CF4"/>
<path d="M29.062 25.9402C30.2276 25.6536 31.2926 25.0534 32.1413 24.2046C32.9901 23.3559 33.5903 22.291 33.877 21.1254C32.7114 21.412 31.6464 22.0122 30.7977 22.861C29.9489 23.7097 29.3486 24.7746 29.062 25.9402Z" fill="#186EF9"/>
<path d="M29.062 29.0612C29.3484 30.2269 29.9486 31.292 30.7974 32.1408C31.6462 32.9895 32.7113 33.5897 33.877 33.8761C33.5903 32.7105 32.9901 31.6456 32.1413 30.7969C31.2926 29.9481 30.2276 29.3479 29.062 29.0612Z" fill="#0246F2"/>
<path d="M25.9405 25.9402C25.6538 24.7746 25.0536 23.7097 24.2048 22.861C23.356 22.0122 22.2911 21.412 21.1255 21.1254C21.4121 22.291 22.0124 23.3559 22.8611 24.2046C23.7099 25.0534 24.7748 25.6536 25.9405 25.9402Z" fill="#0046F8"/>
<path d="M25.9405 29.0612C24.7748 29.3479 23.7099 29.9481 22.8611 30.7969C22.0124 31.6456 21.4121 32.7105 21.1255 33.8761C22.2911 33.5895 23.356 32.9892 24.2048 32.1405C25.0536 31.2917 25.6538 30.2268 25.9405 29.0612Z" fill="#0729F1"/>
</svg>
