<svg width="54" height="54" viewBox="0 0 54 54" fill="none" xmlns="http://www.w3.org/2000/svg">
<circle cx="27" cy="27" r="27" fill="#F3BA2F"/>
<g clip-path="url(#clip0_93_1121)">
<path d="M33.1793 29.5639L36.8091 33.1923L26.9859 43.0155L17.1641 33.1936L20.7939 29.5639L26.9873 35.7894L33.1793 29.5639ZM39.3741 23.3705L43.0332 26.9989L39.4061 30.6273L35.7764 26.9989L39.3741 23.3705ZM26.9873 23.3705L30.6157 26.9668L26.9859 30.5966L23.3575 26.9989L26.9859 23.3718L26.9873 23.3705ZM14.5991 23.3705L18.1981 26.9989L14.6018 30.5952L10.9707 26.9989L14.5991 23.3705ZM26.9886 10.981L36.8104 20.7734L33.1807 24.4005L26.9873 18.2071L20.7952 24.4326L17.1654 20.8042L26.9873 10.9823L26.9886 10.981Z" fill="white"/>
</g>
<defs>
<clipPath id="clip0_93_1121">
<rect width="32.0625" height="32.0625" fill="white" transform="translate(10.9707 10.9678)"/>
</clipPath>
</defs>
</svg>
