<svg width="48" height="46" viewBox="0 0 48 46" fill="none" xmlns="http://www.w3.org/2000/svg">
<path d="M47.3315 17.5633C47.1841 17.1365 46.9161 16.7616 46.5599 16.4841C46.2037 16.2067 45.7747 16.0385 45.3248 16L32.0482 14.0633L26.0982 1.99997C25.9071 1.60547 25.6088 1.27277 25.2374 1.03998C24.866 0.807184 24.4365 0.683716 23.9982 0.683716C23.5598 0.683716 23.1304 0.807184 22.7589 1.03998C22.3875 1.27277 22.0892 1.60547 21.8982 1.99997L15.9482 14.04L2.67149 16C2.23964 16.0614 1.83365 16.2426 1.49957 16.523C1.1655 16.8035 0.91673 17.1719 0.78149 17.5866C0.657695 17.9919 0.646586 18.4232 0.749355 18.8343C0.852124 19.2453 1.06489 19.6207 1.36482 19.92L11.0015 29.2533L8.66816 42.5066C8.58486 42.9441 8.62847 43.3962 8.79386 43.8097C8.95924 44.2232 9.23948 44.5807 9.60149 44.84C9.95433 45.0922 10.3705 45.2411 10.8033 45.27C11.236 45.2988 11.6683 45.2065 12.0515 45.0033L23.9982 38.7733L35.8982 45.0266C36.2256 45.2114 36.5955 45.3079 36.9715 45.3066C37.4657 45.3084 37.9478 45.1532 38.3482 44.8633C38.7102 44.604 38.9904 44.2465 39.1558 43.833C39.3212 43.4196 39.3648 42.9674 39.2815 42.53L36.9482 29.2766L46.5848 19.9433C46.9217 19.6579 47.1707 19.2827 47.3029 18.8615C47.435 18.4402 47.445 17.99 47.3315 17.5633ZM32.9815 26.8966C32.7078 27.1613 32.5031 27.4889 32.3852 27.8509C32.2672 28.2129 32.2396 28.5982 32.3048 28.9733L33.9848 38.75L25.2115 34.0833C24.8739 33.9035 24.4973 33.8095 24.1148 33.8095C23.7324 33.8095 23.3557 33.9035 23.0182 34.0833L14.2448 38.75L15.9248 28.9733C15.99 28.5982 15.9624 28.2129 15.8445 27.8509C15.7265 27.4889 15.5218 27.1613 15.2482 26.8966L8.24816 19.8966L18.0715 18.4733C18.4495 18.4207 18.8088 18.2762 19.118 18.0525C19.4272 17.8288 19.6767 17.5326 19.8448 17.19L23.9982 8.29997L28.3848 17.2133C28.5529 17.5559 28.8025 17.8521 29.1117 18.0758C29.4208 18.2996 29.7802 18.4441 30.1582 18.4966L39.9815 19.92L32.9815 26.8966Z" fill="white"/>
</svg>
