<svg width="34" height="34" viewBox="0 0 34 34" fill="none" xmlns="http://www.w3.org/2000/svg">
<path d="M32.3 3.4H27.2V1.7C27.2 1.24913 27.0209 0.81673 26.7021 0.497918C26.3833 0.179107 25.9509 0 25.5 0H8.5C8.04913 0 7.61673 0.179107 7.29792 0.497918C6.97911 0.81673 6.8 1.24913 6.8 1.7V3.4H1.7C1.24913 3.4 0.81673 3.57911 0.497918 3.89792C0.179107 4.21673 0 4.64913 0 5.1V10.2C0 12.0035 0.716427 13.7331 1.99167 15.0083C3.26692 16.2836 4.99653 17 6.8 17H9.418C10.9557 18.7155 13.0289 19.86 15.3 20.247V23.8H13.6C12.2474 23.8 10.9502 24.3373 9.99376 25.2938C9.03732 26.2502 8.5 27.5474 8.5 28.9V32.3C8.5 32.7509 8.67911 33.1833 8.99792 33.5021C9.31673 33.8209 9.74913 34 10.2 34H23.8C24.2509 34 24.6833 33.8209 25.0021 33.5021C25.3209 33.1833 25.5 32.7509 25.5 32.3V28.9C25.5 27.5474 24.9627 26.2502 24.0062 25.2938C23.0498 24.3373 21.7526 23.8 20.4 23.8H18.7V20.247C20.9711 19.86 23.0443 18.7155 24.582 17H27.2C29.0035 17 30.7331 16.2836 32.0083 15.0083C33.2836 13.7331 34 12.0035 34 10.2V5.1C34 4.64913 33.8209 4.21673 33.5021 3.89792C33.1833 3.57911 32.7509 3.4 32.3 3.4ZM6.8 13.6C5.89826 13.6 5.03346 13.2418 4.39584 12.6042C3.75821 11.9665 3.4 11.1017 3.4 10.2V6.8H6.8V10.2C6.80374 11.3589 7.00495 12.5087 7.395 13.6H6.8ZM20.4 27.2C20.8509 27.2 21.2833 27.3791 21.6021 27.6979C21.9209 28.0167 22.1 28.4491 22.1 28.9V30.6H11.9V28.9C11.9 28.4491 12.0791 28.0167 12.3979 27.6979C12.7167 27.3791 13.1491 27.2 13.6 27.2H20.4ZM23.8 10.2C23.8 12.0035 23.0836 13.7331 21.8083 15.0083C20.5331 16.2836 18.8035 17 17 17C15.1965 17 13.4669 16.2836 12.1917 15.0083C10.9164 13.7331 10.2 12.0035 10.2 10.2V3.4H23.8V10.2ZM30.6 10.2C30.6 11.1017 30.2418 11.9665 29.6042 12.6042C28.9665 13.2418 28.1017 13.6 27.2 13.6H26.605C26.995 12.5087 27.1963 11.3589 27.2 10.2V6.8H30.6V10.2Z" fill="#F001F4"/>
</svg>
