<svg width="121" height="104" viewBox="0 0 121 104" fill="none" xmlns="http://www.w3.org/2000/svg">
<path fill-rule="evenodd" clip-rule="evenodd" d="M84.3311 33.8234C96.1257 53.6138 107.92 73.4043 119.711 93.1948L119.719 93.1913C121.283 95.8049 120.93 98.3372 119.615 100.245C118.57 102.247 116.565 103.724 113.581 103.724H7.42451C2.0385 103.724 -1.45045 97.7798 1.28683 93.1948C12.2312 74.8178 23.185 56.4408 34.1387 38.0637C40.8785 26.7565 47.6182 15.4493 54.3558 4.14215C54.9457 3.11484 55.8295 2.25493 56.9121 1.65511C57.9947 1.05528 59.2349 0.738281 60.4991 0.738281C61.7633 0.738281 63.0035 1.05528 64.0861 1.65511C65.1687 2.25493 66.0525 3.11484 66.6424 4.14215C72.5384 14.0359 78.4348 23.9296 84.3311 33.8234ZM54.8079 46.8692L56.104 66.2048C56.3446 68.7067 56.7455 70.5714 57.3185 71.7976C57.8755 73.0193 58.8931 73.6302 60.3394 73.6302C61.7697 73.6302 62.7932 73.0033 63.4143 71.7334C64.031 70.4694 64.4319 68.6527 64.62 66.2821L66.355 46.3822C66.5475 44.5525 66.6437 42.7475 66.6437 40.9761C66.6437 37.9624 66.2471 35.6559 65.4642 34.0492C64.6886 32.4528 63.1387 31.6494 60.8308 31.6494C58.9179 31.6494 57.3754 32.2763 56.2017 33.5244C55.0324 34.7797 54.4492 36.519 54.4492 38.7556C54.4492 40.3972 54.5659 43.1032 54.8079 46.8692ZM56.2863 91.1711C57.5124 92.2369 58.9427 92.7646 60.5829 92.7646C62.151 92.7838 63.6679 92.2069 64.8271 91.1507C66.0328 90.0776 66.6437 88.5934 66.6437 86.7126C66.6437 85.0461 66.0328 83.6217 64.8446 82.4539C63.6432 81.2787 62.2027 80.6956 60.5042 80.6956C58.8056 80.6956 57.3754 81.2787 56.2017 82.4539C55.0324 83.6217 54.4492 85.0461 54.4492 86.7126C54.4492 88.6225 55.0601 90.1097 56.2863 91.1711Z" fill="url(#paint0_linear_126_925)"/>
<defs>
<linearGradient id="paint0_linear_126_925" x1="24.3424" y1="52.2309" x2="120.751" y2="99.4361" gradientUnits="userSpaceOnUse">
<stop stop-color="#F86E39"/>
<stop offset="1" stop-color="#E6211E"/>
</linearGradient>
</defs>
</svg>
